<?xml version="1.0" encoding="UTF-8" standalone="no"?>
<!DOCTYPE svg PUBLIC "-//W3C//DTD SVG 1.1//EN" "http://www.w3.org/Graphics/SVG/1.1/DTD/svg11.dtd">
<svg width="100%" height="100%" viewBox="0 0 50 50" version="1.1" xmlns="http://www.w3.org/2000/svg" xmlns:xlink="http://www.w3.org/1999/xlink" xml:space="preserve" xmlns:serif="http://www.serif.com/" style="fill-rule:evenodd;clip-rule:evenodd;stroke-linejoin:round;stroke-miterlimit:2;">
    <g transform="matrix(0.774967,0,0,0.774967,7.27676,5.62582)">
        <g transform="matrix(1,0,0,1,-113.409,-59.5267)">
            <path d="M137.603,55.298C147.134,53.86 139.574,61.408 165.001,83.526C176.756,93.751 145.504,98.86 137.603,111.754C132.799,119.595 118.342,105.289 110.206,83.526C104.75,68.933 122.651,57.553 137.603,55.298Z" style="fill:rgb(200,255,250);"/>
        </g>
        <g transform="matrix(0.678892,0,0,0.698016,10.5402,6.42259)">
            <path d="M0,47.298L2.887,52.67C2.933,52.751 2.986,52.82 3.034,52.887L6.735,48.096L6.096,43.154C6.052,42.776 6.033,42.299 6.033,42.299C6.033,42.299 6.802,41.503 7.061,41.32L20.923,28.3L34.162,50.62C34.517,51.214 35.152,51.258 35.58,50.708L39.172,46.079C39.594,45.525 39.737,44.554 39.486,43.899L29.906,19.227L42.909,5.469C45.305,2.924 46.909,-0.558 46.497,-2.314C46.342,-2.981 45.972,-3.61 45.48,-4.155L45.47,-4.168C44.926,-4.66 44.297,-5.03 43.625,-5.181C41.875,-5.589 38.388,-3.987 35.846,-1.592L22.089,11.409L-2.586,1.828C-3.237,1.579 -4.209,1.715 -4.764,2.145L-9.391,5.734C-9.943,6.163 -9.901,6.796 -9.301,7.154L13.014,20.399L-0.002,34.257C-0.183,34.51 -0.981,35.286 -0.981,35.286C-0.981,35.286 -1.462,35.264 -1.844,35.216L-6.783,34.58L-11.57,38.284C-11.502,38.336 -11.439,38.386 -11.352,38.427L-5.987,41.313C-5.286,41.653 -4.82,41.369 -4.578,41.111C-4.727,41.414 -4.974,41.996 -5.315,43.033C-5.315,43.033 -6.625,46.275 -5.8,47.098L-5.785,47.114C-4.949,47.953 -1.717,46.634 -1.717,46.634C-0.685,46.29 -0.103,46.041 0.207,45.894C-0.055,46.135 -0.338,46.602 0,47.298" style="fill:rgb(55,243,225);fill-rule:nonzero;stroke:rgb(3,167,151);stroke-width:2.34px;"/>
        </g>
    </g>
</svg>
