<?xml version="1.0" encoding="UTF-8" standalone="no"?>
<!DOCTYPE svg PUBLIC "-//W3C//DTD SVG 1.1//EN" "http://www.w3.org/Graphics/SVG/1.1/DTD/svg11.dtd">
<svg width="100%" height="100%" viewBox="0 0 550 311" version="1.1" xmlns="http://www.w3.org/2000/svg" xmlns:xlink="http://www.w3.org/1999/xlink" xml:space="preserve" xmlns:serif="http://www.serif.com/" style="fill-rule:evenodd;clip-rule:evenodd;stroke-linejoin:round;stroke-miterlimit:2;">
    <g transform="matrix(0.179103,0,0,0.164502,0,-1.98952e-13)">
        <rect x="0" y="0" width="3070.87" height="1889.76" style="fill:white;"/>
    </g>
    <g transform="matrix(1.47166,0,0,1.47166,-208.419,-421.398)">
        <g transform="matrix(0,-1,-1,0,219.947,328.346)">
            <path d="M-7.208,-7.208C-11.188,-7.208 -14.415,-3.981 -14.415,0C-14.415,3.98 -11.188,7.208 -7.208,7.208C-3.228,7.208 -0.001,3.98 -0.001,0C-0.001,-3.981 -3.228,-7.208 -7.208,-7.208" style="fill:rgb(255,203,227);fill-rule:nonzero;"/>
        </g>
        <g transform="matrix(1,0,0,1,161.624,339.455)">
            <path d="M0,4.91C3.801,12.11 8.894,20.173 13.495,26.335C14.673,27.912 16.1,29.302 17.794,30.305C26.464,35.438 33.182,27.544 35.128,20.02C36.68,14.024 36.505,7.524 39.234,1.964C41.453,-2.557 45.388,-6.011 47.939,-10.352C50.491,-14.694 51.25,-20.938 47.462,-24.257C46,-25.54 39.376,-30.528 30.263,-26.658C24.782,-24.331 21.951,-17.481 16.193,-15.965C10.72,-14.525 4.506,-18.439 -0.318,-13.47C-1.738,-12.008 -2.64,-10.108 -3,-8.102C-3.819,-3.529 -2.115,0.904 0,4.91" style="fill:rgb(255,203,227);fill-rule:nonzero;"/>
        </g>
        <g transform="matrix(1,0,0,1,191.001,339.847)">
            <path d="M0,16.503C-6.752,23.787 -17.455,27.316 -27.201,25.065C-37.28,22.735 -43.131,12.968 -38.272,3.386C-33.858,-5.317 -23.591,-10.344 -14.106,-10.497C-2.369,-10.686 8.423,-2.028 3.845,10.513C3.568,11.271 4.776,11.597 5.05,10.846C9.16,-0.413 1.419,-9.795 -9.753,-11.457C-20.972,-13.125 -34.067,-7.59 -39.352,2.755C-43.874,11.607 -40.046,21.413 -30.913,25.182C-20.139,29.628 -6.857,25.737 0.884,17.387C1.43,16.798 0.548,15.911 0,16.503" style="fill:rgb(175,1,83);fill-rule:nonzero;"/>
        </g>
        <g transform="matrix(1,0,0,1,184.862,340.115)">
            <path d="M0,12.193C-5.066,16.791 -13.012,19.261 -19.794,17.797C-26.866,16.269 -31.243,10.007 -27.381,3.228C-23.94,-2.813 -16.446,-6.328 -9.73,-6.827C-2.155,-7.39 7.306,-3.228 4.4,5.988C4.158,6.757 5.364,7.087 5.605,6.321C8.065,-1.481 2.043,-7.05 -5.348,-7.972C-13.843,-9.032 -24.083,-5.046 -28.461,2.597C-32.023,8.817 -29.461,15.657 -22.821,18.213C-14.991,21.225 -5.18,18.58 0.884,13.077C1.481,12.535 0.595,11.653 0,12.193" style="fill:rgb(175,1,83);fill-rule:nonzero;"/>
        </g>
        <g transform="matrix(1,0,0,1,181.797,362.845)">
            <path d="M0,-33.371C7.272,-42.425 20.912,-41.065 29.903,-35.45C37.839,-30.493 45.192,-19.871 40.018,-10.467C34.436,-0.322 20.043,-1.28 11.198,-5.916C2.656,-10.392 -4.777,-19.856 -1.781,-29.924C-1.551,-30.696 -2.757,-31.026 -2.987,-30.256C-9.532,-8.263 29.53,11.031 41.097,-9.836C46.223,-19.083 40,-29.777 32.338,-35.309C22.815,-42.185 7.267,-44.402 -0.884,-34.255C-1.383,-33.634 -0.504,-32.744 0,-33.371" style="fill:rgb(175,1,83);fill-rule:nonzero;"/>
        </g>
        <g transform="matrix(1,0,0,1,187.282,344.842)">
            <path d="M0,-13.822C9.246,-24.54 35.857,-12.404 30.924,2.017C28.016,10.52 15.844,8.82 9.688,5.782C3.709,2.834 -2.028,-2.946 -1.519,-10.075C-1.462,-10.878 -2.712,-10.874 -2.769,-10.075C-3.376,-1.575 4.13,5.105 11.456,7.899C17.954,10.377 28.154,10.718 31.712,3.342C35.116,-3.717 29.072,-11.355 23.436,-15.03C16.473,-19.57 5.219,-21.781 -0.884,-14.706C-1.407,-14.099 -0.527,-13.212 0,-13.822" style="fill:rgb(175,1,83);fill-rule:nonzero;"/>
        </g>
        <g transform="matrix(-0.558144,0.829744,0.829744,0.558144,161.133,358.761)">
            <path d="M3.121,-5.688C3.892,-3.303 4.061,-0.829 3.62,1.638C3.565,1.951 3.065,1.922 3.121,1.606C3.555,-0.821 3.389,-3.247 2.63,-5.592C2.532,-5.898 3.022,-5.991 3.121,-5.688" style="fill:rgb(175,1,83);fill-rule:nonzero;"/>
        </g>
        <g transform="matrix(0,-1,-1,0,154.187,356.25)">
            <path d="M-0.31,-0.19L-0.19,-0.19C0.131,-0.19 0.132,0.31 -0.19,0.31L-0.31,0.31C-0.632,0.31 -0.632,-0.19 -0.31,-0.19" style="fill:rgb(175,1,83);fill-rule:nonzero;"/>
        </g>
        <g transform="matrix(-0.518582,0.855028,0.855028,0.518582,159.641,358.718)">
            <path d="M1.396,-2.432C1.718,-1.401 1.883,-0.341 1.895,0.739C1.899,1.062 1.4,1.052 1.396,0.731C1.384,-0.308 1.221,-1.322 0.909,-2.313C0.813,-2.62 1.3,-2.738 1.396,-2.432" style="fill:rgb(175,1,83);fill-rule:nonzero;"/>
        </g>
        <g transform="matrix(0.934155,0.356868,0.356868,-0.934155,217.201,353.848)">
            <path d="M1.629,-0.283C2.949,2.674 3.109,5.87 2.096,8.946C1.997,9.253 1.53,9.073 1.629,8.768C2.601,5.812 2.442,2.763 1.172,-0.079C1.041,-0.374 1.498,-0.578 1.629,-0.283" style="fill:rgb(175,1,83);fill-rule:nonzero;"/>
        </g>
        <g transform="matrix(0.968104,0.25055,0.25055,-0.968104,219.273,351.218)">
            <path d="M0.335,-0.039C0.715,0.786 0.888,1.655 0.835,2.564C0.816,2.884 0.316,2.893 0.335,2.571C0.384,1.753 0.248,0.962 -0.096,0.215C-0.229,-0.076 0.2,-0.332 0.335,-0.039" style="fill:rgb(175,1,83);fill-rule:nonzero;"/>
        </g>
        <g transform="matrix(1,0,0,1,222.407,343.47)">
            <path d="M0,0.5C0.322,0.5 0.322,0 0,0C-0.322,0 -0.322,0.5 0,0.5" style="fill:rgb(175,1,83);fill-rule:nonzero;"/>
        </g>
        <g transform="matrix(-0.655322,0.75535,0.75535,0.655322,192.138,350.418)">
            <path d="M3.459,-7.6C4.445,-4.63 4.224,-1.527 3.951,1.541C3.922,1.862 3.431,1.765 3.459,1.448C3.724,-1.535 3.944,-4.55 2.985,-7.439C2.884,-7.744 3.358,-7.906 3.459,-7.6" style="fill:rgb(175,1,83);fill-rule:nonzero;"/>
        </g>
        <g transform="matrix(-0.536384,0.843974,0.843974,0.536384,190.26,349.916)">
            <path d="M1.385,-2.457C1.724,-1.427 1.887,-0.363 1.885,0.722C1.884,1.045 1.385,1.024 1.385,0.703C1.388,-0.34 1.222,-1.357 0.897,-2.348C0.796,-2.655 1.286,-2.761 1.385,-2.457" style="fill:rgb(175,1,83);fill-rule:nonzero;"/>
        </g>
        <g transform="matrix(1,0,0,1,183.347,346.71)">
            <path d="M0,0.5C0.322,0.5 0.322,0 0,0C-0.322,0 -0.322,0.5 0,0.5" style="fill:rgb(175,1,83);fill-rule:nonzero;"/>
        </g>
        <g transform="matrix(0.998054,0.0623508,0.0623508,-0.998054,194.001,349.54)">
            <path d="M0.142,-0.006C0.669,1.473 0.844,2.991 0.641,4.548C0.6,4.865 0.101,4.837 0.142,4.517C0.333,3.051 0.192,1.612 -0.305,0.22C-0.412,-0.081 0.035,-0.308 0.142,-0.006" style="fill:rgb(175,1,83);fill-rule:nonzero;"/>
        </g>
        <g transform="matrix(0.99938,-0.0352157,-0.0352157,-0.99938,193.236,348.948)">
            <path d="M-0.033,-0.001C0.126,0.574 0.286,1.149 0.445,1.724C0.53,2.034 0.053,2.185 -0.033,1.874L-0.51,0.149C-0.596,-0.162 -0.119,-0.311 -0.033,-0.001" style="fill:rgb(175,1,83);fill-rule:nonzero;"/>
        </g>
        <g transform="matrix(1,0,0,1,194.387,343.11)">
            <path d="M0,0.5C0.322,0.5 0.322,0 0,0C-0.322,0 -0.322,0.5 0,0.5" style="fill:rgb(175,1,83);fill-rule:nonzero;"/>
        </g>
        <g transform="matrix(1,0,0,1,192.947,340.11)">
            <path d="M0,0.5C0.322,0.5 0.322,0 0,0C-0.322,0 -0.322,0.5 0,0.5" style="fill:rgb(175,1,83);fill-rule:nonzero;"/>
        </g>
        <g transform="matrix(0.710903,0.70329,0.70329,-0.710903,186.004,357.667)">
            <path d="M1.688,-0.701C1.992,0.86 2.161,2.436 2.188,4.026C2.193,4.348 1.693,4.352 1.688,4.028C1.661,2.481 1.501,0.948 1.205,-0.571C1.143,-0.885 1.626,-1.018 1.688,-0.701" style="fill:rgb(175,1,83);fill-rule:nonzero;"/>
        </g>
        <g transform="matrix(0.793935,0.608003,0.608003,-0.793935,187.572,356.432)">
            <path d="M0.572,-0.202C0.794,0.366 0.956,0.946 1.068,1.546C1.126,1.862 0.631,1.927 0.572,1.611C0.469,1.054 0.315,0.516 0.11,-0.012C-0.007,-0.312 0.455,-0.503 0.572,-0.202" style="fill:rgb(175,1,83);fill-rule:nonzero;"/>
        </g>
        <g transform="matrix(-0.999552,0.0299153,0.0299153,0.999552,180.84,335.645)">
            <path d="M0.129,-2.136C0.428,-1.469 0.59,-0.774 0.629,-0.045C0.645,0.278 0.146,0.293 0.129,-0.03C0.092,-0.717 -0.068,-1.361 -0.349,-1.989C-0.481,-2.282 -0.001,-2.426 0.129,-2.136" style="fill:rgb(175,1,83);fill-rule:nonzero;"/>
        </g>
        <g transform="matrix(-1,-0.000272035,-0.000272035,1,181.91,337.381)">
            <path d="M-0.027,-3.699C0.432,-2.512 0.599,-1.29 0.473,-0.023C0.441,0.294 -0.06,0.297 -0.027,-0.023C0.095,-1.245 -0.066,-2.422 -0.51,-3.566C-0.626,-3.866 -0.142,-3.996 -0.027,-3.699" style="fill:rgb(175,1,83);fill-rule:nonzero;"/>
        </g>
        <g transform="matrix(1,0,0,1,182.147,340.17)">
            <path d="M0,0.5C0.322,0.5 0.322,0 0,0C-0.321,0 -0.322,0.5 0,0.5" style="fill:rgb(175,1,83);fill-rule:nonzero;"/>
        </g>
        <g transform="matrix(0.771673,0.636019,0.636019,-0.771673,182.933,328.68)">
            <path d="M1.08,-0.394C1.073,0.731 1.226,1.836 1.55,2.913C1.641,3.219 1.173,3.394 1.08,3.086C0.745,1.968 0.575,0.822 0.581,-0.346C0.584,-0.665 1.082,-0.716 1.08,-0.394" style="fill:rgb(175,1,83);fill-rule:nonzero;"/>
        </g>
        <g transform="matrix(0.923803,0.382869,0.382869,-0.923803,184.795,329.824)">
            <path d="M0.273,-0.054C0.426,0.356 0.58,0.768 0.734,1.178C0.847,1.48 0.386,1.672 0.273,1.369C0.119,0.959 -0.036,0.549 -0.19,0.137C-0.302,-0.164 0.159,-0.356 0.273,-0.054" style="fill:rgb(175,1,83);fill-rule:nonzero;"/>
        </g>
        <g transform="matrix(1,0,0,1,188.327,325.83)">
            <path d="M0,0.5C0.322,0.5 0.322,0 0,0C-0.322,0 -0.322,0.5 0,0.5" style="fill:rgb(175,1,83);fill-rule:nonzero;"/>
        </g>
        <g transform="matrix(1,0,0,1,171.621,316.698)">
            <path d="M0,8.362C-2.758,8.258 -5.911,8.022 -7.314,5.248C-7.733,4.421 -8.241,3.094 -6.956,2.954C-5.414,2.786 -3.716,4.053 -2.766,5.096C-2.417,5.478 -1.814,5.074 -1.93,4.61C-2.193,3.55 -2.566,2.305 -2.524,1.205C-2.473,-0.163 -1.658,-0.033 -0.729,0.795C-0.373,1.111 -0.217,1.835 -0.082,2.252C0.589,4.306 0.461,6.644 -0.432,8.609C-0.696,9.191 0.166,9.7 0.432,9.114C1.669,6.392 1.99,1.581 -0.585,-0.588C-1.476,-1.338 -2.52,-1.312 -3.192,-0.315C-4.074,0.995 -3.238,3.493 -2.894,4.876C-2.616,4.714 -2.337,4.551 -2.059,4.389C-3.343,2.979 -9.027,-0.11 -8.757,3.812C-8.447,8.312 -3.603,9.226 0,9.362C0.644,9.385 0.643,8.385 0,8.362" style="fill:rgb(175,1,83);fill-rule:nonzero;"/>
        </g>
        <g transform="matrix(1,0,0,1,179.222,307.921)">
            <path d="M0,7.895C-0.82,6.723 -1.776,5.705 -2.724,4.64C-3.271,4.027 -4.083,3.17 -4.016,2.283C-3.864,0.299 -1.98,2.847 -1.759,3.4C-1.543,3.938 -0.85,3.834 -0.776,3.267C-0.707,2.725 -1.011,1.834 -0.437,1.466C1.081,0.495 0.826,3.707 0.763,4.023C0.492,5.4 -0.232,6.658 -0.864,7.895C-1.156,8.467 -0.293,8.974 0,8.4C0.991,6.458 2.973,3.133 1.27,1.045C0.71,0.36 -0.166,0.176 -0.942,0.603C-2.058,1.216 -1.642,2.223 -1.776,3.267C-1.449,3.223 -1.122,3.179 -0.794,3.134C-1.31,1.85 -3.828,-1.079 -4.901,1.308C-5.403,2.423 -4.744,3.7 -4.079,4.582C-3.073,5.916 -1.828,7.021 -0.864,8.4C-0.498,8.923 0.37,8.424 0,7.895" style="fill:rgb(175,1,83);fill-rule:nonzero;"/>
        </g>
    </g>
    <g transform="matrix(0.326546,0,0,0.326546,125.388,6.67626)">
        <g transform="matrix(0,-1,-1,0,244.459,78.7804)">
            <path d="M-140.688,-140.688C-218.387,-140.688 -281.375,-77.7 -281.375,-0C-281.375,77.7 -218.387,140.688 -140.688,140.688C-62.987,140.688 -0,77.7 -0,-0C-0,-77.7 -62.987,-140.688 -140.688,-140.688" style="fill:rgb(229,220,255);fill-rule:nonzero;"/>
        </g>
        <g transform="matrix(1,0,0,1,316.161,65.6661)">
            <path d="M0,310.047C-1.148,310.047 -2.334,309.963 -3.525,309.797C-4.521,309.657 -5.524,309.464 -6.576,309.209C-7.007,309.19 -7.437,309.133 -7.86,309.041C-20.774,306.177 -29.785,301.591 -33.655,299.359C-33.959,299.364 -34.285,299.367 -34.632,299.367C-38.739,299.367 -46.342,298.901 -53.861,295.999C-58.521,298.484 -67.067,302.016 -77.967,302.016C-85.932,302.016 -93.857,300.117 -101.563,296.367C-108.095,298.925 -114.597,299.497 -119.112,299.497C-120.048,299.497 -120.889,299.473 -121.609,299.437C-125.829,301.871 -134.6,306.232 -147.255,309.037C-147.689,309.132 -148.124,309.19 -148.559,309.209C-149.61,309.464 -150.613,309.657 -151.606,309.797C-152.797,309.962 -153.982,310.047 -155.134,310.047C-176.385,310.047 -180.68,283.094 -182.743,270.141C-183.103,267.88 -183.442,265.747 -183.722,264.673C-183.981,264.239 -184.927,263.331 -185.5,262.779C-192.512,256.05 -190.907,250.657 -188.326,247.319C-186.884,245.454 -185.097,244.061 -183.108,243.221C-182.676,242.324 -182.128,241.496 -181.473,240.742C-180.329,239.428 -178.428,237.879 -175.497,237.186C-174.312,236.02 -172.927,235.118 -171.409,234.533C-170.066,234.015 -168.644,233.752 -167.179,233.752C-166.917,233.752 -166.654,233.761 -166.392,233.777C-164.751,232.755 -162.95,232.151 -161.077,232.004C-160.776,231.981 -160.486,231.97 -160.195,231.97C-159.54,231.97 -158.892,232.025 -158.251,232.135C-155.657,230.039 -152.396,228.919 -148.758,228.919L-148.64,228.919C-145.624,228.945 -143.004,229.839 -140.951,231.518C-139.949,228.471 -138.654,225.48 -136.986,222.894C-135.261,211.589 -132.933,203.602 -131.031,198.436C-145.285,190.935 -156.913,176.674 -161.834,170.011C-164.813,169.54 -167.121,168.611 -168.882,167.569C-170.351,168.036 -172.032,168.38 -173.81,168.38C-177.579,168.38 -180.812,166.881 -183.16,164.045C-184.765,162.109 -185.638,159.889 -185.73,157.6C-187.646,155.88 -188.892,153.534 -189.304,150.818C-189.695,148.214 -189.218,145.734 -187.951,143.634C-188.376,142.973 -188.722,142.298 -188.989,141.611C-190.037,138.912 -189.935,136.02 -188.701,133.46C-187.675,131.336 -185.184,127.915 -179.638,127.29C-179.054,125.887 -178.193,124.611 -177.087,123.54C-175.087,121.608 -172.455,120.543 -169.672,120.543C-167.596,120.543 -164.489,121.149 -161.477,124.03C-161.002,124.484 -160.528,124.96 -160.057,125.455C-159.675,125.202 -159.281,124.975 -158.874,124.77C-157.347,124.005 -155.721,123.617 -154.04,123.617C-153.811,123.617 -153.582,123.625 -153.353,123.639C-153.933,121.743 -154.468,119.805 -154.958,117.829C-161.49,116.31 -169.275,113.234 -174.683,107.022C-179.422,101.574 -181.492,94.56 -180.671,86.736C-179.823,78.658 -176.275,72.117 -170.413,67.82C-166.317,64.817 -161.244,62.959 -155.293,62.274C-152.76,52.315 -148.78,43.335 -143.439,35.534C-127.554,12.329 -101.271,0.376 -65.323,0.008C-64.81,0.003 -64.293,0 -63.782,0C-21.175,0 9.056,18.169 21.34,51.16C24.354,59.255 26.193,68.045 26.824,77.342C32.758,79.471 37.495,82.542 40.94,86.5C45.678,91.946 47.75,98.959 46.929,106.783C46.079,114.865 42.532,121.406 36.67,125.701C30.499,130.226 22.945,131.404 17.335,131.536C16.177,134.236 14.93,136.853 13.608,139.369C14.377,139.616 15.12,139.951 15.824,140.369C16.216,140.601 16.594,140.858 16.958,141.138C17.463,140.677 17.968,140.238 18.471,139.819C20.782,137.906 23.43,136.897 26.133,136.897C29.16,136.897 32.054,138.186 34.073,140.434C35.107,141.587 35.878,142.926 36.36,144.374C40.46,145.161 43.518,147.536 44.957,151.152C46.01,153.795 45.906,156.692 44.666,159.311C44.35,159.977 43.956,160.624 43.487,161.252C44.603,163.438 44.902,165.946 44.327,168.511C43.72,171.2 42.308,173.454 40.275,175.029C40.02,177.308 38.99,179.457 37.254,181.274C34.949,183.688 31.949,184.965 28.583,184.965C26.452,184.965 24.463,184.451 22.768,183.776C20.863,184.733 18.376,185.523 15.202,185.74C9.708,191.27 -3.363,203.031 -19.404,207.963C-18.346,216.352 -18.603,223.75 -18.723,227.226C-18.728,227.383 -18.733,227.536 -18.738,227.685C-18.101,229.096 -17.219,231.226 -16.351,233.885C-16.021,233.402 -15.646,232.934 -15.22,232.484C-13.048,230.184 -10.047,228.95 -6.541,228.919L-6.377,228.919C-2.74,228.919 0.52,230.039 3.114,232.134C3.752,232.025 4.399,231.97 5.053,231.97C5.349,231.97 5.645,231.981 5.942,232.004C7.816,232.151 9.616,232.755 11.257,233.777C11.52,233.761 11.782,233.752 12.043,233.752C13.509,233.752 14.933,234.015 16.273,234.533C17.791,235.118 19.176,236.02 20.363,237.187C23.287,237.878 25.187,239.424 26.335,240.736C26.992,241.494 27.539,242.323 27.974,243.221C29.962,244.061 31.749,245.453 33.191,247.318C35.772,250.659 37.376,256.052 30.364,262.781C29.786,263.337 28.845,264.242 28.587,264.672C28.31,265.74 27.972,267.855 27.617,270.088C25.546,283.09 21.251,310.046 0,310.047" style="fill:white;fill-rule:nonzero;"/>
        </g>
        <g transform="matrix(1,0,0,1,353.086,269.978)">
            <path d="M0,-98.576C-0.551,-93.327 -2.633,-89.342 -6.187,-86.731C-10.697,-83.415 -16.803,-82.765 -21.324,-82.838C-17.56,-93.847 -15.286,-105.909 -15.095,-118.027C-11.004,-116.762 -6.575,-114.665 -3.563,-111.196C-0.628,-107.818 0.538,-103.69 0,-98.576M-204.032,-103.905C-206.966,-107.283 -208.133,-111.411 -207.594,-116.525C-207.043,-121.773 -204.962,-125.759 -201.408,-128.369C-197.728,-131.075 -192.987,-132.001 -188.907,-132.213C-190.842,-120.038 -190.492,-107.55 -188.536,-96.058C-193.437,-97.079 -200.002,-99.263 -204.032,-103.905M-125.48,-32.738C-151.001,-39.365 -170.43,-55.897 -178.785,-78.096C-187.875,-102.243 -189.322,-137.889 -172.068,-163.095C-158.145,-183.433 -134.62,-193.914 -102.146,-194.247C-52.396,-194.746 -32.694,-170.272 -25.011,-149.641C-11.426,-113.16 -26.458,-66.987 -48.447,-48.367C-68.31,-31.545 -97.824,-25.556 -125.48,-32.738M-135.929,82.103C-136.502,75.897 -140.693,51.911 -171.073,44.579C-170.696,40.382 -169.452,30.561 -165.765,24.497C-155.636,27.586 -105.227,41.612 -64.58,28.09C-63.178,31.346 -60.546,38.479 -60.323,46.551C-67.082,48.411 -88.959,56.323 -93.523,81.662C-97.392,84.115 -114.585,93.519 -135.929,82.103M-175.489,91.779C-171.408,83.958 -174.031,72.481 -176.364,62.278C-177.197,58.634 -177.995,55.127 -178.456,52.003C-176.116,50.238 -174.307,49.352 -173.459,48.991C-145.151,55.208 -141.271,76.256 -140.744,82.096C-149.857,86.22 -159.969,84.931 -160.073,84.914C-160.662,84.837 -161.267,84.977 -161.763,85.312C-161.828,85.357 -166.776,88.671 -175.489,91.779M-209.738,64.239C-210.191,61.39 -210.55,59.143 -210.981,57.571C-211.754,54.775 -213.81,52.8 -215.461,51.214C-216.117,50.585 -217.084,49.655 -217.321,49.183C-217.313,49.18 -217.306,49.172 -217.296,49.161C-216.195,47.737 -215.147,47.965 -214.664,48.203C-213.832,48.676 -212.799,48.612 -212.028,48.035C-211.263,47.463 -210.907,46.488 -211.127,45.554C-211.229,45.119 -211.352,43.654 -210.813,43.035C-210.356,42.512 -209.2,42.54 -208.545,42.594C-207.482,42.705 -206.479,42.056 -206.076,41.069C-206.071,41.057 -205.59,39.927 -204.693,39.596C-204.097,39.371 -203.295,39.518 -202.313,40.025C-201.214,40.589 -199.843,40.206 -199.17,39.164C-198.94,38.808 -198.09,37.779 -197.211,37.719C-196.547,37.665 -195.642,38.252 -194.702,39.35C-194.107,40.045 -193.164,40.332 -192.282,40.108C-191.396,39.886 -190.706,39.167 -190.509,38.275C-190.375,37.668 -189.515,34.664 -185.679,34.664L-185.609,34.664C-184.896,34.67 -184.405,34.809 -184.153,35.075C-183.211,36.073 -183.383,39.598 -183.534,42.705C-183.605,44.168 -183.679,45.703 -183.683,47.264C-183.691,51.865 -182.415,57.445 -181.065,63.351C-178.793,73.286 -176.219,84.545 -180.393,90.597C-182.239,93.276 -185.358,94.888 -189.923,95.525C-203.32,97.388 -207.172,80.355 -209.738,64.239M-52.621,62.274C-54.955,72.48 -57.577,83.958 -53.495,91.779C-62.209,88.671 -67.157,85.357 -67.223,85.312C-67.625,85.038 -68.102,84.893 -68.585,84.893C-68.657,84.893 -68.729,84.896 -68.801,84.902C-68.913,84.913 -79.438,85.793 -88.61,81.709C-83.615,56.639 -60.017,51.319 -57.641,50.847C-57.037,50.839 -54.047,50.892 -50.624,52.623C-51.096,55.587 -51.843,58.871 -52.621,62.274M-45.45,42.71C-45.603,39.599 -45.773,36.073 -44.832,35.075C-44.581,34.809 -44.092,34.67 -43.377,34.664L-43.307,34.664C-39.472,34.664 -38.61,37.67 -38.481,38.249C-38.303,39.156 -37.621,39.881 -36.727,40.115C-35.835,40.348 -34.884,40.051 -34.282,39.35C-33.344,38.252 -32.41,37.659 -31.776,37.719C-30.896,37.779 -30.046,38.808 -29.829,39.146C-29.167,40.216 -27.791,40.599 -26.673,40.025C-25.692,39.518 -24.89,39.371 -24.293,39.596C-23.403,39.926 -22.923,41.04 -22.922,41.04C-22.54,42.06 -21.511,42.711 -20.441,42.594C-19.795,42.535 -18.638,42.511 -18.178,43.029C-17.655,43.62 -17.743,45.022 -17.859,45.554C-18.079,46.487 -17.727,47.461 -16.959,48.035C-16.189,48.612 -15.155,48.676 -14.323,48.203C-14.191,48.128 -13.01,47.524 -11.674,49.2C-11.925,49.678 -12.876,50.591 -13.524,51.214C-15.177,52.8 -17.231,54.773 -18.004,57.572C-18.436,59.143 -18.795,61.394 -19.249,64.242C-21.685,79.54 -25.285,95.668 -37.097,95.665C-37.728,95.665 -38.384,95.619 -39.063,95.525C-43.627,94.888 -46.745,93.276 -48.595,90.597C-52.767,84.545 -50.192,73.283 -47.921,63.349C-46.569,57.443 -45.294,51.864 -45.303,47.264C-45.307,45.705 -45.38,44.17 -45.45,42.71M-27.13,-47.08C-27.794,-48.641 -28.903,-52.485 -28.092,-54.392C-27.902,-54.842 -27.626,-55.106 -27.172,-55.281C-26.588,-55.504 -26.368,-55.374 -26.236,-55.297C-25.083,-54.614 -24.104,-51.612 -23.84,-49.712C-23.708,-48.727 -22.986,-47.927 -22.021,-47.691C-21.066,-47.461 -20.046,-47.836 -19.477,-48.649C-19.444,-48.696 -16.184,-53.312 -12.036,-56.75C-11.759,-56.979 -10.812,-57.695 -10.336,-57.16C-9.792,-56.553 -9.836,-54.91 -11.643,-53.16C-12.455,-52.372 -12.609,-51.126 -12.015,-50.164C-11.421,-49.2 -10.237,-48.776 -9.165,-49.154C-5.996,-50.262 -1.788,-50.635 -1.306,-49.43C-1.398,-48.434 -5.171,-46.053 -9.438,-44.693C-10.584,-44.328 -11.284,-43.176 -11.083,-41.991C-10.879,-40.807 -9.819,-39.897 -8.635,-39.986C-6.343,-40.043 -3.218,-39.501 -2.473,-38.598C-2.408,-38.52 -2.32,-38.414 -2.413,-38.004C-2.562,-37.34 -2.827,-37.203 -2.97,-37.13C-4.052,-36.575 -6.528,-37.148 -7.854,-37.714C-9.054,-38.231 -10.439,-37.698 -10.989,-36.517C-11.54,-35.337 -11.051,-33.93 -9.888,-33.344C-8.469,-32.628 -6.782,-31.25 -6.649,-30.477C-6.626,-30.336 -6.846,-30.088 -6.939,-29.988C-8.539,-28.322 -12.406,-30.842 -13.35,-31.604C-13.921,-32.069 -14.654,-32.289 -15.37,-32.131C-16.089,-31.973 -16.676,-31.535 -17.001,-30.875C-17.065,-30.767 -18.64,-28.216 -24.858,-28.611C-25.603,-28.661 -26.318,-28.36 -26.812,-27.807C-26.991,-27.605 -45.066,-7.54 -65.426,-4.515C-65.455,-4.512 -65.48,-4.5 -65.51,-4.494C-65.538,-4.489 -65.565,-4.49 -65.594,-4.484C-65.644,-4.473 -65.688,-4.451 -65.735,-4.437C-65.82,-4.413 -65.903,-4.388 -65.983,-4.355C-66.052,-4.328 -66.115,-4.295 -66.18,-4.261C-66.255,-4.221 -66.33,-4.181 -66.4,-4.135C-66.461,-4.095 -66.517,-4.05 -66.573,-4.005C-66.638,-3.953 -66.701,-3.901 -66.76,-3.843C-66.812,-3.792 -66.858,-3.737 -66.905,-3.681C-66.958,-3.619 -67.009,-3.556 -67.055,-3.489C-67.096,-3.43 -67.131,-3.367 -67.167,-3.304C-67.206,-3.232 -67.245,-3.161 -67.277,-3.086C-67.307,-3.018 -67.33,-2.949 -67.353,-2.879C-67.378,-2.802 -67.402,-2.725 -67.42,-2.646C-67.437,-2.571 -67.445,-2.495 -67.455,-2.418C-67.458,-2.389 -67.466,-2.361 -67.468,-2.332L-67.462,-2.332C-67.481,-2.095 -67.479,-1.853 -67.424,-1.608C-65.206,8.372 -65.539,17.957 -65.699,22.564C-65.709,22.861 -65.718,23.123 -65.726,23.362C-104.136,36.31 -153.468,23.094 -163.955,19.993C-160.882,-0.037 -155.847,-8.449 -155.759,-8.594C-155.548,-8.931 -155.441,-9.301 -155.411,-9.672L-155.402,-9.671C-155.399,-9.715 -155.404,-9.759 -155.403,-9.802C-155.401,-9.879 -155.399,-9.955 -155.404,-10.03C-155.409,-10.112 -155.422,-10.191 -155.436,-10.27C-155.448,-10.345 -155.461,-10.417 -155.479,-10.488C-155.5,-10.564 -155.526,-10.637 -155.554,-10.71C-155.58,-10.783 -155.608,-10.854 -155.643,-10.925C-155.675,-10.992 -155.713,-11.055 -155.752,-11.12C-155.794,-11.188 -155.836,-11.256 -155.884,-11.319C-155.931,-11.382 -155.983,-11.439 -156.036,-11.497C-156.088,-11.553 -156.139,-11.608 -156.196,-11.66C-156.262,-11.719 -156.332,-11.77 -156.404,-11.822C-156.444,-11.851 -156.478,-11.886 -156.52,-11.912C-156.539,-11.924 -156.56,-11.93 -156.579,-11.941C-156.653,-11.985 -156.732,-12.021 -156.812,-12.056C-156.884,-12.09 -156.954,-12.123 -157.028,-12.148C-157.052,-12.156 -157.072,-12.17 -157.098,-12.177C-175.58,-17.842 -192.414,-42.713 -192.582,-42.964C-193.026,-43.626 -193.769,-44.026 -194.566,-44.033C-200.79,-44.08 -202.185,-46.737 -202.207,-46.77C-202.481,-47.45 -203.055,-47.967 -203.758,-48.175C-204.464,-48.39 -205.224,-48.262 -205.825,-47.841C-206.826,-47.142 -210.867,-44.902 -212.341,-46.68C-212.429,-46.788 -212.63,-47.05 -212.595,-47.189C-212.406,-47.952 -210.627,-49.206 -209.167,-49.817C-207.961,-50.313 -207.373,-51.676 -207.833,-52.895C-208.291,-54.116 -209.643,-54.742 -210.873,-54.325C-212.24,-53.857 -214.75,-53.455 -215.792,-54.088C-215.929,-54.171 -216.183,-54.326 -216.285,-55C-216.348,-55.414 -216.252,-55.514 -216.183,-55.589C-215.376,-56.434 -212.24,-56.767 -209.94,-56.533C-208.752,-56.434 -207.638,-57.188 -207.351,-58.357C-207.063,-59.527 -207.684,-60.727 -208.803,-61.172C-212.961,-62.824 -216.554,-65.468 -216.569,-66.481C-216.006,-67.641 -211.837,-66.972 -208.757,-65.642C-207.709,-65.185 -206.502,-65.527 -205.843,-66.446C-205.182,-67.364 -205.247,-68.618 -206.002,-69.463C-207.679,-71.335 -207.606,-72.977 -207.02,-73.544C-206.505,-74.041 -205.613,-73.263 -205.354,-73.014C-201.46,-69.287 -198.535,-64.451 -198.506,-64.403C-197.994,-63.552 -197.018,-63.097 -196.035,-63.267C-195.058,-63.433 -194.28,-64.18 -194.078,-65.152C-193.688,-67.026 -192.504,-69.944 -191.293,-70.551C-191.155,-70.619 -190.93,-70.735 -190.359,-70.471C-189.92,-70.264 -189.664,-69.982 -189.506,-69.522C-188.835,-67.581 -190.214,-63.811 -190.984,-62.294C-191.541,-61.206 -191.197,-59.875 -190.184,-59.194C-184.32,-55.252 -174.568,-51.813 -165.301,-49.163C-155.09,-39.32 -141.907,-32.021 -126.691,-28.069C-118.575,-25.962 -110.305,-24.935 -102.135,-24.935C-87.604,-24.936 -73.405,-28.188 -61.018,-34.387C-49.829,-36.394 -35.911,-39.594 -28.15,-44.046C-27.091,-44.653 -26.652,-45.956 -27.13,-47.08M-23.077,-78.064C-22.335,-78.025 -21.554,-77.997 -20.713,-77.997C-15.527,-77.997 -8.702,-78.909 -3.35,-82.833C1.356,-86.281 4.097,-91.409 4.797,-98.074C5.472,-104.505 3.88,-109.99 0.064,-114.375C-4.044,-119.096 -10.019,-121.669 -15.146,-123.073C-15.463,-132.718 -17.134,-142.305 -20.492,-151.324C-31.972,-182.156 -60.427,-199.077 -100.708,-199.077C-101.201,-199.077 -101.7,-199.074 -102.196,-199.069C-136.336,-198.719 -161.182,-187.532 -176.046,-165.819C-181.995,-157.129 -185.837,-147.283 -187.998,-137.086C-193.021,-136.957 -199.267,-135.918 -204.244,-132.268C-208.95,-128.82 -211.69,-123.692 -212.391,-117.029C-213.065,-110.597 -211.475,-105.112 -207.66,-100.726C-202.132,-94.375 -193.221,-91.905 -187.549,-90.951C-186.43,-85.803 -184.995,-80.905 -183.299,-76.397C-180.527,-69.033 -176.619,-62.257 -171.74,-56.202C-177.072,-57.981 -182.08,-59.984 -185.798,-62.14C-184.934,-64.408 -183.918,-68.097 -184.944,-71.086C-185.526,-72.784 -186.696,-74.082 -188.322,-74.84C-190.073,-75.658 -191.849,-75.666 -193.453,-74.862C-195.097,-74.038 -196.28,-72.477 -197.112,-70.889C-198.408,-72.616 -200.096,-74.655 -202.021,-76.498C-205.087,-79.431 -208.498,-78.821 -210.372,-77.01C-211.682,-75.743 -212.416,-73.815 -212.188,-71.657C-215.453,-72.206 -219.269,-71.977 -220.911,-68.579C-221.517,-67.323 -221.561,-65.948 -221.036,-64.599C-220.424,-63.027 -219.022,-61.609 -217.428,-60.422C-218.273,-60.057 -219.049,-59.569 -219.671,-58.918C-220.848,-57.684 -221.325,-56.08 -221.054,-54.278C-220.765,-52.372 -219.806,-50.878 -218.278,-49.957C-217.849,-49.698 -217.392,-49.497 -216.919,-49.347C-217.068,-49.032 -217.187,-48.701 -217.274,-48.357C-217.56,-47.208 -217.582,-45.45 -216.055,-43.606C-213.069,-40.001 -208.371,-41.013 -205.053,-42.697C-203.541,-41.223 -200.768,-39.539 -195.878,-39.253C-192.532,-34.503 -178.153,-15.201 -161.209,-8.522C-163.123,-4.418 -166.61,4.752 -168.911,20.539C-174.166,27.798 -175.592,40.426 -175.938,44.823C-176.688,45.172 -177.677,45.695 -178.842,46.422C-178.82,45.235 -178.773,44.062 -178.718,42.94C-178.491,38.28 -178.295,34.257 -180.646,31.767C-181.835,30.509 -183.489,29.861 -185.565,29.842L-185.684,29.842C-189.716,29.842 -192.262,31.787 -193.717,33.876C-194.965,33.132 -196.272,32.811 -197.596,32.912C-199.506,33.062 -200.969,34.068 -201.933,35C-203.885,34.429 -205.422,34.708 -206.45,35.105C-208.021,35.711 -209.071,36.82 -209.72,37.758C-212.186,37.895 -213.636,38.934 -214.45,39.869C-215.352,40.904 -215.769,42.119 -215.938,43.237C-217.611,43.356 -219.498,44.124 -221.11,46.21C-223.89,49.807 -220.704,52.865 -218.8,54.693C-217.448,55.99 -216.05,57.334 -215.631,58.854C-215.27,60.164 -214.913,62.404 -214.5,64.997C-212.493,77.597 -208.848,100.501 -192.06,100.501C-191.165,100.501 -190.229,100.437 -189.258,100.3C-188.126,100.142 -187.07,99.911 -186.056,99.642C-185.981,99.649 -185.91,99.67 -185.834,99.67C-185.661,99.67 -185.485,99.652 -185.313,99.614C-171.381,96.525 -162.417,91.411 -159.814,89.793C-156.84,90.06 -147.249,90.499 -138.293,86.277C-129.757,90.862 -121.791,92.469 -114.893,92.469C-103.001,92.469 -94.266,87.802 -91.136,85.854C-82.13,90.062 -72.179,89.919 -69.218,89.763C-66.679,91.348 -57.689,96.506 -43.672,99.614C-43.498,99.652 -43.323,99.67 -43.151,99.67C-43.075,99.67 -43.004,99.649 -42.93,99.642C-41.915,99.911 -40.859,100.142 -39.728,100.3C-38.755,100.437 -37.822,100.501 -36.926,100.501C-20.144,100.499 -16.494,77.6 -14.486,65C-14.073,62.405 -13.717,60.166 -13.354,58.854C-12.936,57.333 -11.537,55.99 -10.186,54.693C-8.281,52.865 -5.097,49.807 -7.875,46.21C-9.488,44.124 -11.374,43.356 -13.049,43.237C-13.218,42.119 -13.636,40.904 -14.535,39.869C-15.352,38.934 -16.8,37.895 -19.268,37.758C-19.916,36.82 -20.966,35.711 -22.537,35.105C-23.565,34.708 -25.102,34.429 -27.055,35C-28.019,34.068 -29.481,33.062 -31.392,32.912C-32.715,32.809 -34.022,33.13 -35.269,33.876C-36.725,31.787 -39.27,29.842 -43.304,29.842L-43.421,29.842C-45.498,29.861 -47.152,30.509 -48.339,31.767C-50.69,34.257 -50.495,38.283 -50.268,42.944C-50.2,44.333 -50.128,45.791 -50.125,47.273C-50.125,47.363 -50.133,47.463 -50.135,47.554C-52.215,46.72 -54.099,46.335 -55.512,46.162C-55.863,35.496 -59.894,26.594 -60.93,24.473C-60.927,24.071 -60.902,23.394 -60.88,22.732C-60.738,18.641 -60.425,9.482 -62.229,-0.226C-43.463,-4.138 -27.674,-19.845 -23.993,-23.752C-19.009,-23.643 -16.115,-25.16 -14.492,-26.533C-11.303,-24.616 -6.687,-23.271 -3.455,-26.657C-1.801,-28.387 -1.697,-30.141 -1.899,-31.307C-1.961,-31.658 -2.058,-31.995 -2.182,-32.32C-1.702,-32.438 -1.23,-32.604 -0.782,-32.834C0.807,-33.643 1.869,-35.065 2.293,-36.946C2.691,-38.724 2.329,-40.358 1.243,-41.672C0.67,-42.366 -0.069,-42.907 -0.887,-43.331C0.788,-44.403 2.285,-45.717 3.009,-47.243C3.629,-48.551 3.684,-49.926 3.167,-51.222C1.771,-54.728 -2.023,-55.225 -5.315,-54.91C-4.936,-57.047 -5.53,-59.023 -6.746,-60.379C-8.484,-62.314 -11.84,-63.172 -15.112,-60.463C-17.163,-58.763 -18.989,-56.847 -20.405,-55.22C-21.123,-56.863 -22.193,-58.503 -23.773,-59.44C-25.315,-60.355 -27.083,-60.476 -28.894,-59.786C-30.57,-59.143 -31.828,-57.931 -32.531,-56.279C-33.767,-53.371 -33.016,-49.619 -32.314,-47.295C-36.692,-45.156 -42.708,-43.332 -48.953,-41.826C-47.719,-42.748 -46.503,-43.693 -45.33,-44.687C-36.389,-52.259 -28.542,-64.138 -23.077,-78.064" style="fill:rgb(44,1,175);fill-rule:nonzero;"/>
        </g>
        <g transform="matrix(1,0,0,1,249.156,171.296)">
            <path d="M0,7.094C-0.224,7.133 -0.446,7.176 -0.67,7.219C-0.911,7.171 -1.15,7.142 -1.412,7.157C-1.884,7.186 -1.616,7.165 -1.513,7.158C-1.599,7.164 -1.937,7.164 -2.128,7.18C-2.649,7.11 -3.137,7.183 -3.658,7.274C-3.823,7.303 -3.868,7.313 -3.859,7.313C-4.028,7.332 -4.199,7.347 -4.358,7.374C-4.427,7.386 -4.494,7.4 -4.562,7.413C-4.692,7.379 -5.138,7.456 -5.223,7.457C-5.456,7.459 -5.69,7.454 -5.923,7.446C-6.057,7.441 -6.188,7.429 -6.321,7.421C-6.342,7.42 -6.368,7.414 -6.394,7.408C-6.378,7.413 -6.377,7.413 -6.356,7.419C-5.959,7.541 -6.663,7.337 -6.771,7.309C-6.991,7.249 -7.203,7.166 -7.42,7.097C-7.443,7.089 -7.455,7.085 -7.47,7.081C-7.545,7.035 -7.619,6.985 -7.672,6.955C-7.871,6.847 -8.066,6.729 -8.256,6.602C-8.333,6.551 -8.397,6.495 -8.447,6.451C-8.751,6.154 -9.055,5.868 -9.34,5.549C-9.396,5.464 -9.457,5.38 -9.512,5.294C-9.617,5.13 -9.716,4.961 -9.807,4.788C-9.852,4.704 -9.892,4.618 -9.934,4.533C-10.004,4.295 -10.085,4.064 -10.14,3.82C-10.146,3.787 -10.167,3.696 -10.184,3.622C-10.187,3.605 -10.19,3.582 -10.191,3.573C-10.207,3.34 -10.22,3.108 -10.218,2.873C-10.215,2.639 -10.19,2.408 -10.178,2.174C-10.205,2.658 -10.159,2.119 -10.114,1.925C-10.063,1.697 -10,1.471 -9.928,1.248C-9.896,1.149 -9.857,1.051 -9.822,0.952C-9.611,0.556 -9.4,0.172 -9.146,-0.197C-9.101,-0.249 -8.995,-0.38 -8.934,-0.446C-8.773,-0.618 -8.604,-0.776 -8.43,-0.934C-8.412,-0.95 -8.412,-0.95 -8.401,-0.961C-8.312,-1.024 -8.222,-1.088 -8.128,-1.143C-8.034,-1.199 -7.937,-1.246 -7.842,-1.3C-7.829,-1.307 -7.825,-1.311 -7.817,-1.316C-7.792,-1.319 -7.756,-1.323 -7.7,-1.334C-7.69,-1.336 -7.634,-1.343 -7.58,-1.35C-7.497,-1.344 -7.335,-1.341 -7.243,-1.338C-7.229,-1.335 -7.229,-1.334 -7.208,-1.33C-7.02,-1.292 -6.832,-1.25 -6.646,-1.201C-6.357,-1.126 -6.072,-1.04 -5.791,-0.943C-5.686,-0.906 -5.582,-0.866 -5.477,-0.829C-5.433,-0.812 -5.404,-0.802 -5.387,-0.797C-5.385,-0.797 -5.384,-0.796 -5.382,-0.795C-4.837,-0.557 -4.301,-0.277 -3.776,0.002C-3.136,0.343 -2.521,0.527 -1.842,0.757C-1.27,0.95 -0.575,0.669 -0.229,0.207C0.169,-0.327 0.15,-0.904 -0.109,-1.496C-0.427,-2.217 -0.759,-2.775 -1.364,-3.304C-1.955,-3.821 -2.579,-4.259 -3.273,-4.623C-4.658,-5.35 -6.286,-6.012 -7.878,-5.985C-11.124,-5.929 -13.577,-2.847 -14.551,-0.027C-16.454,5.489 -12.641,11.928 -6.852,12.824C-5.034,13.106 -3.074,12.932 -1.471,11.958C-1.128,11.751 -0.838,11.507 -0.595,11.193C-0.478,11.075 -0.388,10.942 -0.325,10.791C-0.343,10.813 -0.354,10.825 -0.368,10.843C-0.109,10.54 0.129,10.229 0.309,9.871C0.509,9.472 0.566,8.921 0.624,8.707C0.717,8.367 0.783,8.063 0.803,7.705C0.827,7.259 0.38,7.029 0,7.094" style="fill:rgb(44,1,175);fill-rule:nonzero;"/>
        </g>
        <g transform="matrix(1,0,0,1,242.762,178.647)">
            <path d="M0,0.057C-0.189,0 -0.103,0.036 0,0.057" style="fill:rgb(44,1,175);fill-rule:nonzero;"/>
        </g>
        <g transform="matrix(1,0,0,1,224.286,130.348)">
            <path d="M0,1.142C-0.184,-0.336 -0.704,-1.399 -1.883,-2.309C-2.484,-2.774 -3.15,-3.179 -3.847,-3.489C-5.837,-4.376 -7.799,-4.574 -9.942,-4.215C-11.432,-3.966 -12.886,-3.32 -14.089,-2.413C-15.667,-1.223 -17.77,0.513 -17.558,2.732C-17.403,4.342 -16.316,5.705 -14.577,5.712C-13.568,5.716 -12.719,5.323 -11.896,4.787C-11.698,4.64 -11.507,4.485 -11.314,4.332C-11.305,4.326 -11.304,4.325 -11.293,4.317C-11.081,4.173 -10.877,4.023 -10.66,3.887C-10.24,3.623 -9.773,3.441 -9.34,3.209C-9.264,3.183 -9.188,3.156 -9.111,3.131C-8.958,3.084 -8.492,3.043 -8.297,2.954C-8.214,2.952 -8.132,2.946 -8.049,2.946C-7.917,2.945 -7.782,2.957 -7.648,2.968C-7.517,2.998 -7.386,3.035 -7.256,3.076C-7.207,3.101 -7.157,3.123 -7.109,3.151C-6.671,3.392 -6.265,3.687 -5.82,3.916C-4.448,4.623 -2.961,4.668 -1.596,3.924C-0.7,3.435 0.131,2.204 0,1.142" style="fill:rgb(44,1,175);fill-rule:nonzero;"/>
        </g>
        <g transform="matrix(0.380949,0.924596,0.924596,-0.380949,282.561,131.947)">
            <path d="M0.112,-0.076C0.112,-0.079 0.112,-0.081 0.113,-0.084C0.131,0.043 0.122,0.155 0.112,0.176C0.112,0.114 0.11,0.05 0.109,-0.017C0.109,-0.038 0.11,-0.052 0.112,-0.076" style="fill:rgb(44,1,175);fill-rule:nonzero;"/>
        </g>
        <g transform="matrix(1,0,0,1,291.404,133.605)">
            <path d="M0,-6.572C-1.446,-7.647 -3.118,-8.254 -4.892,-8.491C-6.699,-8.734 -8.59,-8.529 -10.283,-7.835C-11.385,-7.384 -12.398,-6.898 -13.27,-6.06C-13.641,-5.704 -14.013,-5.289 -14.29,-4.858C-14.674,-4.263 -14.725,-3.52 -14.795,-2.842C-14.928,-1.549 -13.551,-0.303 -12.314,-0.362C-11.896,-0.382 -11.468,-0.431 -11.057,-0.517C-10.565,-0.62 -10.159,-0.909 -9.717,-1.123C-9.438,-1.259 -9.155,-1.383 -8.878,-1.522C-8.907,-1.515 -8.937,-1.509 -8.967,-1.505C-8.919,-1.51 -8.868,-1.532 -8.817,-1.551C-8.672,-1.623 -8.623,-1.636 -8.637,-1.622C-8.617,-1.631 -8.596,-1.64 -8.577,-1.647C-8.281,-1.747 -7.98,-1.829 -7.675,-1.894C-7.592,-1.912 -7.467,-1.922 -7.35,-1.939C-7.023,-1.95 -6.701,-1.964 -6.374,-1.944C-6.345,-1.942 -6.313,-1.939 -6.283,-1.935C-6.405,-1.956 -6.445,-1.972 -6.254,-1.933C-6.155,-1.922 -6.056,-1.905 -5.959,-1.907C-6.045,-1.905 -6.144,-1.916 -6.227,-1.927C-6.197,-1.922 -6.174,-1.917 -6.135,-1.908C-5.838,-1.844 -5.553,-1.754 -5.264,-1.665C-5.237,-1.657 -5.227,-1.654 -5.207,-1.648C-5.165,-1.63 -5.123,-1.611 -5.081,-1.591C-4.814,-1.462 -4.556,-1.318 -4.305,-1.159C-4.226,-1.109 -4.148,-1.056 -4.071,-1.004C-2.948,0.052 -1.992,1.444 -0.395,1.798C1.252,2.162 2.603,1.301 3.187,-0.235C4.168,-2.822 1.878,-5.176 0,-6.572" style="fill:rgb(44,1,175);fill-rule:nonzero;"/>
        </g>
        <g transform="matrix(1,0,0,1,285.12,131.678)">
            <path d="M0,-0.008C0.018,-0.006 0.037,-0.003 0.057,0C0.048,-0.002 0.037,-0.004 0.029,-0.006C0.02,-0.007 0.01,-0.007 0,-0.008" style="fill:rgb(44,1,175);fill-rule:nonzero;"/>
        </g>
        <g transform="matrix(1,0,0,1,266.919,104.096)">
            <path d="M0,-17.978C-0.163,-18.628 -1.093,-18.736 -1.421,-18.164C-2.899,-15.584 -3.709,-12.738 -5.363,-10.234C-6.95,-7.832 -8.743,-5.596 -11.024,-3.812C-15.739,-0.126 -21.981,1.437 -27.889,0.613C-30.53,0.244 -33.594,-0.523 -35.325,-2.724C-36.76,-4.546 -37.158,-7.177 -36.67,-9.354C-36.075,-12.005 -34.521,-14.439 -32.367,-16.173C-31.624,-16.772 -30.405,-17.453 -29.512,-17.729C-28.843,-17.936 -28.35,-18.022 -27.944,-18.027C-27.242,-18.036 -27.018,-18.062 -26.244,-17.717C-25.399,-17.34 -24.363,-16.044 -23.748,-15.03C-23.293,-14.282 -22.917,-13.544 -22.733,-12.682C-22.604,-12.074 -22.592,-11.596 -22.679,-11.275C-22.729,-11.089 -22.785,-10.89 -22.854,-10.703C-22.878,-10.766 -23.452,-9.842 -23.138,-10.225C-23.859,-9.349 -22.824,-10.702 -23.549,-9.866C-23.377,-10.065 -23.579,-9.908 -23.662,-9.808L-23.717,-9.808C-23.772,-9.823 -23.848,-9.841 -23.959,-9.867C-23.52,-9.569 -24.363,-10.127 -24.369,-10.131C-23.78,-9.766 -24.976,-10.582 -25.158,-10.68C-25.577,-10.907 -26.084,-11.058 -26.539,-11.218C-27.5,-11.555 -28.89,-11.009 -29.341,-10.079C-30.516,-7.655 -29.313,-5.171 -26.981,-4C-24.832,-2.921 -22.307,-2.934 -20.21,-4.152C-16.163,-6.504 -15.205,-11.743 -16.839,-15.85C-18.592,-20.255 -22.073,-24.121 -27.009,-24.577C-31.178,-24.962 -35.385,-22.68 -38.201,-19.751C-41.279,-16.552 -43.382,-12.299 -43.474,-7.811C-43.564,-3.333 -41.478,0.927 -37.896,3.584C-34.455,6.138 -29.704,6.984 -25.503,6.861C-21.198,6.734 -16.955,5.626 -13.139,3.632C-9.049,1.496 -5.593,-1.766 -3.089,-5.629C-0.912,-8.988 1.004,-13.962 0,-17.978" style="fill:rgb(44,1,175);fill-rule:nonzero;"/>
        </g>
        <g transform="matrix(1,0,0,1,281.918,206.861)">
            <path d="M0,-23.335C0.229,-25.268 -0.25,-26.807 -2.39,-26.668C-5.197,-26.485 -6.404,-22.867 -7.524,-20.841C-8.861,-18.423 -10.216,-16.627 -12.097,-14.694C-15.724,-10.967 -20.297,-8.126 -25.159,-6.551C-35.485,-3.206 -46.776,-5.601 -55.974,-11.756C-58.571,-13.494 -60.922,-15.565 -63.041,-17.862C-64.069,-18.978 -65.029,-20.147 -65.93,-21.367C-66.873,-22.645 -67.998,-24.025 -69.538,-24.535C-70,-24.689 -70.557,-24.357 -70.67,-23.893C-71.397,-20.917 -68.674,-17.787 -66.971,-15.592C-65.041,-13.106 -62.875,-10.829 -60.484,-8.782C-55.655,-4.648 -50.069,-1.528 -43.913,0.129C-31.5,3.472 -18.247,-0.138 -8.821,-8.786C-6.35,-11.055 -4.17,-13.711 -2.429,-16.588C-1.821,-17.594 -0.302,-20.803 0,-23.335" style="fill:rgb(44,1,175);fill-rule:nonzero;"/>
        </g>
        <g transform="matrix(-0.241396,-0.970427,-0.970427,0.241396,208.292,151.106)">
            <path d="M-3.901,-11.979C-2.035,-11.804 -0.326,-11.277 0.994,-10.359C7.129,-6.094 1.103,1.664 -3.901,3.514C-8.466,5.201 -18.402,5.172 -19.127,-1.439C-19.897,-8.437 -10.827,-12.631 -3.901,-11.979" style="fill:rgb(44,1,175);fill-rule:nonzero;"/>
        </g>
        <g transform="matrix(-0.241412,-0.970423,-0.970423,0.241412,278.076,151.106)">
            <path d="M-3.9,-11.979C-2.035,-11.804 -0.326,-11.277 0.995,-10.359C7.13,-6.094 1.104,1.665 -3.9,3.513C-8.466,5.201 -18.402,5.171 -19.127,-1.438C-19.896,-8.436 -10.826,-12.631 -3.9,-11.979" style="fill:rgb(44,1,175);fill-rule:nonzero;"/>
        </g>
        <g transform="matrix(0.39633,-0.918108,-0.918108,-0.39633,305.657,167.936)">
            <path d="M-10.343,-11.389C-9.252,-10.989 -8.176,-10.391 -7.142,-9.572C0.423,-3.58 0.061,11.267 -10.343,13.929C-17.449,15.746 -26.483,10.876 -27.286,3.225C-28.229,-5.756 -18.796,-14.484 -10.343,-11.389" style="fill:rgb(148,113,255);fill-rule:nonzero;"/>
        </g>
        <g transform="matrix(0.396363,-0.918094,-0.918094,-0.396363,200.023,167.616)">
            <path d="M-10.344,-11.388C-9.252,-10.987 -8.176,-10.39 -7.142,-9.571C0.422,-3.579 0.06,11.268 -10.344,13.93C-17.45,15.747 -26.484,10.876 -27.287,3.225C-28.229,-5.756 -18.796,-14.484 -10.344,-11.388" style="fill:rgb(148,113,255);fill-rule:nonzero;"/>
        </g>
        <g transform="matrix(1,0,0,1,214.702,153.153)">
            <path d="M0,-1.712C-0.153,-2.258 -0.429,-2.732 -0.828,-3.134C-1.045,-3.301 -1.263,-3.469 -1.48,-3.637C-1.982,-3.929 -2.524,-4.075 -3.105,-4.077C-3.549,-4.094 -3.963,-4.001 -4.347,-3.799C-4.746,-3.669 -5.092,-3.447 -5.383,-3.134C-5.697,-2.842 -5.919,-2.496 -6.049,-2.097C-6.251,-1.713 -6.343,-1.299 -6.326,-0.856L-6.212,0C-6.059,0.546 -5.782,1.019 -5.383,1.422C-5.166,1.59 -4.948,1.758 -4.731,1.926C-4.229,2.217 -3.688,2.363 -3.105,2.365C-2.662,2.382 -2.249,2.289 -1.865,2.088C-1.466,1.958 -1.12,1.735 -0.828,1.422C-0.514,1.13 -0.292,0.784 -0.162,0.385C0.04,0.001 0.132,-0.412 0.115,-0.856C0.077,-1.142 0.038,-1.427 0,-1.712" style="fill:white;fill-rule:nonzero;"/>
        </g>
        <g transform="matrix(1,0,0,1,285.447,153.153)">
            <path d="M0,-1.712C-0.153,-2.258 -0.43,-2.732 -0.828,-3.134C-1.046,-3.301 -1.263,-3.469 -1.48,-3.637C-1.982,-3.929 -2.524,-4.075 -3.106,-4.077C-3.55,-4.094 -3.963,-4.001 -4.347,-3.799C-4.746,-3.669 -5.092,-3.447 -5.384,-3.134C-5.697,-2.842 -5.92,-2.496 -6.05,-2.097C-6.251,-1.713 -6.344,-1.299 -6.327,-0.856L-6.212,0C-6.059,0.546 -5.782,1.019 -5.384,1.422C-5.166,1.59 -4.949,1.758 -4.731,1.926C-4.229,2.217 -3.688,2.363 -3.106,2.365C-2.662,2.382 -2.249,2.289 -1.865,2.088C-1.466,1.958 -1.12,1.735 -0.828,1.422C-0.515,1.13 -0.292,0.784 -0.162,0.385C0.039,0.001 0.132,-0.412 0.115,-0.856C0.076,-1.142 0.038,-1.427 0,-1.712" style="fill:white;fill-rule:nonzero;"/>
        </g>
        <g transform="matrix(1,0,0,1,202.001,355.647)">
            <path d="M0,0.45C-1.31,-0.047 -2.659,0.192 -4.018,0.198C-5.263,0.204 -6.211,0.073 -7.382,-0.193C-8.746,-0.503 -9.982,-0.818 -11.224,-1.488C-12.484,-2.171 -13.517,-3.177 -14.876,-3.645C-15.632,-3.904 -16.359,-3.096 -16.151,-2.37C-15.752,-0.985 -14.711,-0.148 -13.6,0.698C-12.613,1.448 -11.559,2.031 -10.456,2.587C-8.086,3.78 -5.376,4.354 -2.714,4.194C-1.299,4.109 0.326,3.601 1.016,2.251C1.499,1.303 0.902,0.793 0,0.45" style="fill:rgb(44,1,175);fill-rule:nonzero;"/>
        </g>
        <g transform="matrix(1,0,0,1,288.698,359.513)">
            <path d="M0,-8.03C-1.067,-7.824 -1.871,-6.894 -2.665,-6.212C-2.693,-6.187 -2.688,-6.191 -2.703,-6.177C-2.782,-6.12 -2.859,-6.061 -2.938,-6.006C-3.11,-5.883 -3.286,-5.764 -3.465,-5.651C-3.868,-5.393 -4.288,-5.169 -4.709,-4.942C-4.896,-4.842 -5.085,-4.746 -5.276,-4.655C-5.369,-4.61 -5.464,-4.57 -5.556,-4.526C-5.562,-4.523 -5.563,-4.523 -5.569,-4.521C-5.992,-4.362 -6.417,-4.214 -6.853,-4.094C-7.472,-3.925 -8.148,-3.599 -8.638,-3.175C-8.678,-3.139 -8.668,-3.148 -8.679,-3.14C-8.737,-3.106 -8.797,-3.073 -8.854,-3.038C-9.056,-2.914 -9.217,-2.769 -9.363,-2.608C-9.457,-2.548 -9.551,-2.487 -9.642,-2.422C-9.773,-2.343 -9.878,-2.239 -9.956,-2.107C-10.064,-1.868 -10.078,-1.829 -9.995,-1.989C-10.178,-1.829 -10.162,-1.511 -9.995,-1.349C-10.167,-1.516 -9.926,-1.183 -9.888,-1.132C-9.791,-1.003 -9.662,-0.918 -9.526,-0.834C-9.526,-0.834 -9.344,-0.729 -9.309,-0.716C-9.197,-0.633 -9.099,-0.527 -8.979,-0.457C-8.817,-0.363 -8.547,-0.271 -8.35,-0.221C-8.026,-0.139 -8.479,-0.283 -8.31,-0.232C-7.924,-0.115 -7.733,0.001 -7.301,0.053C-7.171,0.069 -7.041,0.081 -6.91,0.093C-5.631,0.206 -4.184,-0.477 -3.046,-0.996C-1.965,-1.489 -0.994,-2.198 -0.096,-2.969C0.921,-3.842 2.119,-5.04 2.027,-6.486C1.958,-7.58 1.063,-8.236 0,-8.03" style="fill:rgb(44,1,175);fill-rule:nonzero;"/>
        </g>
        <g transform="matrix(1,0,0,1,347.859,175.889)">
            <path d="M0,-12.891C-1.537,-14.113 -3.491,-13.244 -4.907,-12.232C-6.423,-11.147 -7.537,-9.752 -8.245,-8.028C-8.968,-6.267 -9.073,-4.281 -8.676,-2.429C-8.461,-1.423 -8.08,-0.323 -7.241,0.325C-6.08,1.222 -4.514,1.009 -3.475,0.013C-1.701,-1.689 -1.826,-5.148 -4.31,-6.079C-4.548,-6.168 -4.809,-6.17 -5.068,-6.138C-5.051,-6.217 -5.036,-6.292 -5.016,-6.374C-4.945,-6.651 -4.776,-7.165 -4.719,-7.292C-4.654,-7.434 -4.39,-7.917 -4.225,-8.169C-4.202,-8.204 -4.079,-8.377 -4.054,-8.42C-3.967,-8.53 -3.875,-8.637 -3.781,-8.741C-3.558,-8.989 -3.313,-9.213 -3.064,-9.435C-3.021,-9.474 -2.994,-9.498 -2.975,-9.518C-2.951,-9.534 -2.923,-9.552 -2.878,-9.582C-2.74,-9.678 -2.603,-9.772 -2.461,-9.861C-2.183,-10.034 -1.893,-10.184 -1.596,-10.324C-1.478,-10.378 -1.205,-10.507 -1.136,-10.549C-0.999,-10.632 -0.864,-10.731 -0.733,-10.826C-0.326,-11.12 -0.072,-11.437 0.144,-11.784C0.336,-12.094 0.307,-12.648 0,-12.891" style="fill:rgb(44,1,175);fill-rule:nonzero;"/>
        </g>
        <g transform="matrix(1,0,0,1,160.922,151.145)">
            <path d="M0,5.963C-0.098,4.864 -0.212,3.764 -0.412,2.679C-0.768,0.748 -1.654,-1.222 -3.019,-2.649C-3.775,-3.442 -4.692,-4.05 -5.708,-4.452C-6.67,-4.833 -8.158,-5.153 -9.069,-4.516C-9.86,-3.964 -10.106,-2.571 -9.069,-2.077C-8.705,-1.903 -8.429,-1.826 -8.026,-1.787C-7.987,-1.784 -7.733,-1.753 -7.712,-1.758C-7.579,-1.73 -7.447,-1.7 -7.318,-1.661C-7.231,-1.635 -7.146,-1.603 -7.061,-1.572C-7.049,-1.565 -7.047,-1.564 -7.02,-1.552C-6.848,-1.467 -6.68,-1.374 -6.519,-1.27C-6.49,-1.253 -6.334,-1.14 -6.279,-1.103C-5.987,-0.867 -5.723,-0.594 -5.479,-0.308C-5.433,-0.255 -5.416,-0.239 -5.404,-0.228C-5.398,-0.214 -5.383,-0.185 -5.339,-0.115C-5.25,0.028 -5.156,0.167 -5.071,0.315C-4.831,0.734 -4.784,0.863 -4.675,1.22C-4.56,1.593 -4.473,1.975 -4.403,2.359C-4.385,2.459 -4.369,2.56 -4.354,2.661C-4.353,2.674 -4.349,2.708 -4.345,2.738C-5.266,3.011 -6.095,3.666 -6.623,4.451C-7.309,5.469 -7.554,6.874 -7.195,8.055C-6.792,9.38 -5.733,10.459 -4.367,10.773C-2.871,11.116 -1.356,10.619 -0.51,9.306C-0.331,9.027 -0.189,8.689 -0.106,8.372C-0.068,8.228 -0.056,8.05 -0.037,7.91C0.09,6.963 -0.117,8.489 0.008,7.557C0.081,7.016 0.048,6.504 0,5.963" style="fill:rgb(44,1,175);fill-rule:nonzero;"/>
        </g>
        <g transform="matrix(1,0,0,1,244.344,290.691)">
            <path d="M0,1.759C0.023,1.475 0.002,1.183 -0.001,0.897C-0.004,0.625 -0.006,0.354 -0.009,0.082C-0.015,-0.446 -0.122,-0.957 -0.242,-1.468C-0.335,-1.688 -0.429,-1.909 -0.521,-2.13C-0.695,-2.452 -0.934,-2.711 -1.234,-2.906C-1.701,-3.267 -2.306,-3.528 -2.912,-3.501C-3.404,-3.479 -3.875,-3.352 -4.31,-3.123C-4.887,-2.818 -5.433,-2.101 -5.582,-1.468C-5.698,-0.973 -5.81,-0.477 -5.814,0.034C-5.817,0.322 -5.82,0.61 -5.823,0.897C-5.826,1.168 -5.839,1.441 -5.828,1.711C-5.814,2.033 -5.76,2.463 -5.68,2.81C-5.547,3.387 -5.186,3.809 -4.83,4.252C-4.972,4.07 -5.112,3.887 -5.254,3.703C-5.145,3.903 -5.04,4.065 -4.897,4.249C-4.442,4.838 -3.684,5.287 -2.912,5.253C-2.255,5.223 -1.596,4.977 -1.125,4.505C-0.895,4.276 -0.726,3.987 -0.57,3.703C-0.712,3.887 -0.853,4.07 -0.994,4.252C-0.646,3.819 -0.315,3.399 -0.162,2.853C-0.065,2.506 -0.029,2.115 0,1.759" style="fill:rgb(44,1,175);fill-rule:nonzero;"/>
        </g>
        <g transform="matrix(1,0,0,1,170.578,358.046)">
            <path d="M0,-13.408C-0.451,-14.437 -1.077,-15.608 -1.907,-16.385C-2.738,-17.162 -3.895,-17.357 -4.992,-17.419C-5.333,-17.438 -5.473,-17.059 -5.35,-16.796C-4.972,-15.984 -4.824,-15.106 -4.326,-14.355C-3.815,-13.584 -3.272,-12.873 -2.912,-12.009C-2.231,-10.376 -2.002,-8.565 -2.087,-6.807C-2.171,-5.068 -2.658,-3.229 -3.476,-1.689C-4.351,-0.042 -5.925,1.398 -7.398,2.521C-7.537,2.626 -7.601,2.885 -7.398,2.976C-5.056,4.03 -2.955,2.53 -1.523,0.713C0.093,-1.342 0.904,-3.679 1.16,-6.265C1.401,-8.709 0.985,-11.165 0,-13.408" style="fill:rgb(44,1,175);fill-rule:nonzero;"/>
        </g>
        <g transform="matrix(1,0,0,1,317.023,346.001)">
            <path d="M0,14.261C-0.513,13.535 -1.023,13.086 -1.834,12.719C-2.452,12.439 -3.047,12.103 -3.608,11.723C-4.749,10.95 -5.738,9.917 -6.468,8.749C-7.274,7.46 -7.801,5.984 -7.958,4.468C-8.04,3.671 -8.036,2.856 -7.977,2.058C-7.913,1.206 -7.484,0.286 -7.587,-0.55C-7.714,-1.582 -8.901,-2.286 -9.745,-1.443C-10.451,-0.738 -10.661,0.446 -10.829,1.403C-11.008,2.42 -11.082,3.437 -11.004,4.468C-10.854,6.457 -10.303,8.401 -9.314,10.139C-8.414,11.723 -7.175,13.083 -5.73,14.186C-4.322,15.261 -2.439,16.547 -0.633,15.817C-0.059,15.584 0.437,14.877 0,14.261" style="fill:rgb(44,1,175);fill-rule:nonzero;"/>
        </g>
        <g transform="matrix(1,0,0,1,161.026,210.161)">
            <path d="M0,5.734C0.099,5.375 -0.043,4.923 -0.307,4.677C-0.569,4.431 -0.795,4.162 -1.086,3.948C-1.135,3.912 -1.184,3.876 -1.233,3.84C-1.336,3.755 -1.438,3.671 -1.537,3.583C-1.733,3.406 -1.92,3.218 -2.098,3.022C-2.19,2.919 -2.281,2.813 -2.368,2.705C-2.386,2.683 -2.403,2.662 -2.42,2.64C-2.428,2.63 -2.422,2.638 -2.427,2.631C-2.444,2.604 -2.465,2.573 -2.469,2.567C-2.779,2.128 -3.07,1.662 -3.308,1.178C-3.337,1.119 -3.364,1.058 -3.393,0.998L-3.391,1.007C-3.402,0.884 -3.497,0.734 -3.537,0.616C-3.651,0.282 -3.79,0.001 -3.972,-0.297C-4.384,-0.976 -5.537,-0.896 -5.728,-0.068C-5.767,0.103 -5.799,0.274 -5.822,0.449C-5.857,0.711 -5.806,0.969 -5.756,1.227C-5.699,1.513 -5.625,1.796 -5.535,2.072C-5.324,2.716 -5.05,3.34 -4.669,3.902C-4.296,4.451 -3.87,4.975 -3.387,5.431C-3.108,5.694 -2.804,5.966 -2.483,6.174C-2.175,6.375 -1.78,6.492 -1.426,6.6C-1.07,6.71 -0.549,6.609 -0.307,6.304C-0.435,6.39 -0.439,6.39 -0.322,6.303C-0.288,6.282 -0.264,6.251 -0.235,6.223C-0.067,6.143 0.092,5.955 0.009,5.755C0.006,5.749 0.003,5.741 0,5.734" style="fill:rgb(44,1,175);fill-rule:nonzero;"/>
        </g>
        <g transform="matrix(1,0,0,1,157.63,210.978)">
            <path d="M0,0.173C0.001,0.176 0.002,0.178 0.003,0.18C-0.016,-0.007 -0.049,0.066 0,0.173" style="fill:rgb(81,41,75);fill-rule:nonzero;"/>
        </g>
        <g transform="matrix(1,0,0,1,153.408,219.22)">
            <path d="M0,-6.962C-0.084,-7.152 -0.171,-7.358 -0.321,-7.509C-0.478,-7.665 -0.678,-7.704 -0.788,-7.9C-0.868,-8.042 -1.091,-8.011 -1.133,-7.856C-1.182,-7.674 -1.206,-7.706 -1.352,-7.572C-1.515,-7.424 -1.601,-7.245 -1.682,-7.043C-1.836,-6.66 -1.896,-6.289 -1.957,-5.912C-2.08,-5.153 -2.257,-4.386 -2.456,-3.643C-2.554,-3.277 -2.668,-2.916 -2.8,-2.562C-2.947,-2.161 -3.082,-1.996 -3.22,-1.51C-3.429,-0.777 -3.619,0.012 -3.438,0.77C-3.401,0.922 -3.223,1.08 -3.057,1.06C-1.177,0.837 -0.408,-1.316 -0.015,-2.897C0.202,-3.772 0.299,-4.642 0.26,-5.542C0.237,-6.04 0.202,-6.501 0,-6.962" style="fill:rgb(44,1,175);fill-rule:nonzero;"/>
        </g>
        <g transform="matrix(1,0,0,1,333.944,229.862)">
            <path d="M0,-4.459C-0.088,-4.778 -0.335,-5.125 -0.634,-5.282C-1.296,-5.633 -2.128,-5.451 -2.519,-4.788C-2.741,-4.41 -2.982,-4.03 -3.259,-3.688C-3.28,-3.66 -3.302,-3.634 -3.324,-3.606C-3.397,-3.519 -3.472,-3.432 -3.548,-3.346C-3.7,-3.173 -3.846,-2.995 -3.999,-2.823C-4.298,-2.489 -4.616,-2.174 -4.952,-1.878C-5.205,-1.656 -5.437,-1.449 -5.606,-1.148C-5.658,-1.056 -5.715,-0.966 -5.768,-0.873C-5.828,-0.768 -5.863,-0.661 -5.896,-0.554C-5.897,-0.552 -5.898,-0.549 -5.9,-0.546C-6.062,-0.299 -6.084,0.012 -6.01,0.292C-6.014,0.548 -5.876,0.763 -5.638,0.866C-5.406,1.068 -5.081,1.127 -4.781,1.091C-3.6,1.174 -2.574,0.103 -1.843,-0.721C-1.136,-1.517 -0.574,-2.428 -0.139,-3.397C0.018,-3.746 0.105,-4.076 0,-4.459" style="fill:rgb(44,1,175);fill-rule:nonzero;"/>
        </g>
        <g transform="matrix(1,0,0,1,337.27,229.981)">
            <path d="M0,3.33C-0.056,3.058 -0.164,2.81 -0.363,2.58C-0.387,2.553 -0.459,2.466 -0.498,2.42C-0.575,2.311 -0.652,2.198 -0.741,2.101C-0.809,2.025 -0.887,1.959 -0.956,1.884C-0.991,1.846 -1.026,1.806 -1.061,1.766C-1.098,1.713 -1.156,1.633 -1.174,1.605C-1.288,1.431 -1.385,1.246 -1.477,1.059C-1.482,1.044 -1.488,1.028 -1.491,1.019C-1.526,0.924 -1.558,0.826 -1.586,0.727C-1.645,0.52 -1.725,0.324 -1.789,0.119C-1.871,-0.146 -1.926,-0.393 -2.052,-0.645C-2.07,-0.684 -2.09,-0.733 -2.114,-0.77C-2.135,-0.815 -2.131,-0.802 -2.102,-0.733C-2.045,-0.6 -2.067,-0.653 -2.169,-0.894C-2.295,-1.089 -2.505,-1.274 -2.736,-1.333C-3.579,-1.548 -4.089,-0.56 -4.187,0.119C-4.254,0.58 -4.278,0.944 -4.187,1.409C-4.14,1.643 -4.074,1.873 -3.991,2.096C-3.767,2.694 -3.485,3.218 -3.097,3.723C-2.854,4.035 -2.599,4.288 -2.253,4.49C-2.156,4.546 -2.058,4.599 -1.956,4.645C-1.534,4.846 -1.163,4.878 -0.768,4.74C-0.101,4.67 0.357,3.944 0,3.33" style="fill:rgb(44,1,175);fill-rule:nonzero;"/>
        </g>
    </g>
    <g transform="matrix(2.42379,0,0,2.42379,276.221,17.9795)">
        <g transform="matrix(1.16019,0,0,1.16019,8.6581,-2.39715)">
            <path d="M15.877,9.386C22.779,14.784 31.753,16.572 31.753,25.424C31.753,34.275 24.032,44.666 15.877,41.462C14.492,40.918 18.802,38.584 13.9,35.979C6.897,32.259 -3.664,31.236 0,25.424C13.354,4.245 11.054,5.615 15.877,9.386Z" style="fill:rgb(252,206,185);"/>
        </g>
        <g transform="matrix(0.221007,0,0,0.221007,26.8904,37.318)">
            <path d="M0,-118.372C20.099,-130.518 58.484,-122.834 58.484,-81.951C58.484,-27.723 -9.05,10.573 -11.863,12.146C-14.679,10.573 -82.212,-27.723 -82.212,-81.951C-82.212,-122.621 -44.224,-130.437 -24.043,-118.559L-31.138,-93.639L-19.768,-94.412L-30.218,-73.386L-16.315,-74.619L-21.608,-55.735L-8.366,-8.957L-6.688,-51.597L2.326,-80.143L-7.97,-79.522L5.687,-99.315L-9.642,-98.555L0,-118.372Z" style="fill:rgb(255,158,113);fill-rule:nonzero;stroke:rgb(175,56,1);stroke-width:1.62px;"/>
        </g>
    </g>
    <g transform="matrix(2.42379,0,0,2.42379,418.618,14.1107)">
        <g transform="matrix(0.91734,0.398106,-0.398106,0.91734,11.8911,-7.47194)">
            <ellipse cx="23.643" cy="27.279" rx="18.63" ry="19.605" style="fill:rgb(161,255,202);"/>
        </g>
        <g>
            <g transform="matrix(-0.22222,0.0902103,0.0902103,0.22222,4.02855,28.6957)">
                <path d="M-181.813,35.5L-79.962,35.5L-6.93,-35.494L-108.783,-35.496L-181.813,35.5Z" style="fill:rgb(74,241,147);fill-rule:nonzero;stroke:rgb(0,184,80);stroke-width:1.72px;"/>
            </g>
            <g transform="matrix(0.239832,0,0,0.239832,25.0002,34.4155)">
                <path d="M0,-14.768L-62.923,-40.298L-62.923,-0.449C-62.923,3.811 -34.775,25.53 0,25.53C34.773,25.53 62.919,3.814 62.919,-0.449L62.919,-40.298L0,-14.768Z" style="fill:rgb(74,241,147);fill-rule:nonzero;stroke:rgb(0,184,80);stroke-width:1.72px;"/>
            </g>
            <g transform="matrix(0.239832,0,0,0.239832,44.4079,22.8065)">
                <path d="M0,44.204C3.405,44.204 6.168,41.315 6.168,37.749C6.168,34.949 4.454,32.588 2.075,31.693L2.075,0L-1.699,1.517L-1.699,31.568C-4.272,32.343 -6.17,34.801 -6.17,37.749C-6.167,41.315 -3.407,44.204 0,44.204" style="fill:rgb(74,241,147);fill-rule:nonzero;"/>
            </g>
            <g transform="matrix(0.239832,0,0,0.239832,45.8872,44.9636)">
                <path d="M0,-48.182C-6.168,-42.785 -12.338,-48.375 -12.338,-48.375C-12.338,-48.375 -14.65,-39.509 -15.036,-33.532C-15.421,-27.557 -12.53,-21.97 -13.301,-16.957C-14.07,-11.946 -13.301,-5.972 -12.338,-2.888C-11.374,0.193 -9.445,-1.345 -9.445,-1.345C-9.445,-1.345 -10.603,-2.501 -10.603,-3.659C-10.603,-4.814 -8.097,-4.621 -8.097,-4.621L-8.097,-1.345C-8.097,-1.345 -6.554,-1.345 -6.168,-2.521C-5.783,-3.691 -3.47,-3.659 -3.47,-3.659L-2.506,-7.32C-2.506,-7.32 -2.121,-5.78 -2.121,-4.043C-2.121,-2.307 -0.386,-1.73 0.96,-4.043C5.59,-23.706 1.54,-42.593 0,-48.182" style="fill:rgb(74,241,147);fill-rule:nonzero;"/>
            </g>
        </g>
    </g>
    <g transform="matrix(1.87836,0,0,1.87836,295.21,180.57)">
        <g transform="matrix(1,0,0,1,-113.409,-59.5267)">
            <path d="M137.603,55.298C147.134,53.86 139.574,61.408 165.001,83.526C176.756,93.751 145.504,98.86 137.603,111.754C132.799,119.595 118.342,105.289 110.206,83.526C104.75,68.933 122.651,57.553 137.603,55.298Z" style="fill:rgb(200,255,250);"/>
        </g>
        <g transform="matrix(0.678892,0,0,0.698016,10.5402,6.42259)">
            <path d="M0,47.298L2.887,52.67C2.933,52.751 2.986,52.82 3.034,52.887L6.735,48.096L6.096,43.154C6.052,42.776 6.033,42.299 6.033,42.299C6.033,42.299 6.802,41.503 7.061,41.32L20.923,28.3L34.162,50.62C34.517,51.214 35.152,51.258 35.58,50.708L39.172,46.079C39.594,45.525 39.737,44.554 39.486,43.899L29.906,19.227L42.909,5.469C45.305,2.924 46.909,-0.558 46.497,-2.314C46.342,-2.981 45.972,-3.61 45.48,-4.155L45.47,-4.168C44.926,-4.66 44.297,-5.03 43.625,-5.181C41.875,-5.589 38.388,-3.987 35.846,-1.592L22.089,11.409L-2.586,1.828C-3.237,1.579 -4.209,1.715 -4.764,2.145L-9.391,5.734C-9.943,6.163 -9.901,6.796 -9.301,7.154L13.014,20.399L-0.002,34.257C-0.183,34.51 -0.981,35.286 -0.981,35.286C-0.981,35.286 -1.462,35.264 -1.844,35.216L-6.783,34.58L-11.57,38.284C-11.502,38.336 -11.439,38.386 -11.352,38.427L-5.987,41.313C-5.286,41.653 -4.82,41.369 -4.578,41.111C-4.727,41.414 -4.974,41.996 -5.315,43.033C-5.315,43.033 -6.625,46.275 -5.8,47.098L-5.785,47.114C-4.949,47.953 -1.717,46.634 -1.717,46.634C-0.685,46.29 -0.103,46.041 0.207,45.894C-0.055,46.135 -0.338,46.602 0,47.298" style="fill:rgb(55,243,225);fill-rule:nonzero;stroke:rgb(3,167,151);stroke-width:0.97px;"/>
        </g>
    </g>
    <g transform="matrix(0.764179,0,0,0.77173,181.48,-81.5675)">
        <g transform="matrix(2.87179,1.33324,-1.49814,3.16414,359.664,286.283)">
            <path d="M25.867,6.073C37.053,6.073 46.135,14.467 46.135,24.805C46.135,35.144 37.286,37.6 26.099,37.6C23.854,37.6 18.962,44.026 17.136,43.542C9.864,41.612 5.598,33.069 5.598,24.805C5.598,14.467 14.68,6.073 25.867,6.073Z" style="fill:rgb(255,234,236);"/>
        </g>
        <g transform="matrix(-351.382,378.07,378.07,351.382,584.858,187.693)">
            <path d="M0.506,-0.029C0.505,-0.047 0.51,-0.064 0.522,-0.077C0.546,-0.102 0.585,-0.104 0.61,-0.081C0.612,-0.079 0.625,-0.068 0.633,-0.043C0.641,-0.02 0.646,0.02 0.624,0.079C0.624,0.079 0.624,0.079 0.623,0.08C0.623,0.08 0.623,0.08 0.623,0.08C0.566,0.106 0.525,0.105 0.502,0.098C0.476,0.092 0.464,0.079 0.463,0.078C0.438,0.055 0.436,0.015 0.46,-0.01C0.472,-0.023 0.488,-0.03 0.506,-0.029ZM0.509,-0.023C0.492,-0.025 0.476,-0.018 0.464,-0.006C0.443,0.017 0.444,0.053 0.467,0.074C0.467,0.074 0.467,0.074 0.467,0.074C0.467,0.074 0.479,0.087 0.503,0.093C0.526,0.099 0.565,0.1 0.619,0.076C0.64,0.019 0.635,-0.019 0.628,-0.041C0.62,-0.065 0.607,-0.076 0.607,-0.076C0.606,-0.076 0.606,-0.076 0.606,-0.076C0.584,-0.097 0.548,-0.096 0.527,-0.073C0.515,-0.061 0.51,-0.044 0.512,-0.027C0.512,-0.026 0.512,-0.025 0.512,-0.024C0.511,-0.024 0.51,-0.023 0.509,-0.023Z" style="fill:rgb(255,0,22);fill-rule:nonzero;"/>
        </g>
        <g transform="matrix(-351.381,378.069,378.069,351.381,592.708,194.99)">
            <path d="M0.507,-0.018L0.55,0.006L0.544,-0.014C0.543,-0.015 0.544,-0.016 0.545,-0.017C0.546,-0.018 0.547,-0.018 0.548,-0.017L0.603,0.016L0.552,-0.061C0.551,-0.062 0.551,-0.063 0.552,-0.064C0.553,-0.065 0.554,-0.066 0.555,-0.065L0.606,-0.044L0.654,-0.096C0.655,-0.097 0.657,-0.097 0.658,-0.096C0.659,-0.095 0.659,-0.093 0.658,-0.092L0.608,-0.039C0.608,-0.038 0.606,-0.038 0.605,-0.038L0.562,-0.056L0.615,0.024C0.616,0.025 0.616,0.027 0.615,0.028L0.615,0.028C0.614,0.029 0.612,0.029 0.611,0.028L0.551,-0.008L0.558,0.012C0.558,0.013 0.558,0.014 0.557,0.015C0.556,0.015 0.554,0.016 0.553,0.015L0.514,-0.007L0.557,0.057C0.558,0.058 0.558,0.059 0.557,0.06C0.556,0.061 0.555,0.062 0.554,0.061L0.513,0.046L0.467,0.096C0.465,0.097 0.464,0.097 0.462,0.096C0.461,0.095 0.461,0.093 0.462,0.092L0.51,0.041C0.511,0.04 0.512,0.04 0.513,0.04L0.547,0.053L0.503,-0.014C0.502,-0.015 0.502,-0.016 0.503,-0.017C0.504,-0.018 0.506,-0.018 0.507,-0.018Z" style="fill:rgb(255,102,117);fill-rule:nonzero;"/>
        </g>
    </g>
    <g transform="matrix(2.07802,0,0,2.07802,38.5125,44.2476)">
        <g>
            <g transform="matrix(1,0,0,0.891571,-0.603829,7.38478)">
                <path d="M82.22,57.944C94.537,57.944 103.31,69.474 104.537,83.556C105.351,92.898 109.32,97.246 108.139,98.519C101.264,105.926 91.699,109.169 82.22,109.169C74.159,109.169 64.256,107.686 60.334,100.326C58.263,96.44 59.903,88.441 59.903,83.556C59.903,69.42 69.903,57.944 82.22,57.944Z" style="fill:rgb(208,229,255);"/>
            </g>
            <g transform="matrix(1.31977,0,0,1.20967,-30.2123,-15.8093)">
                <ellipse cx="84.734" cy="73.838" rx="9.749" ry="8.599" style="fill:white;"/>
            </g>
            <g transform="matrix(0.409416,0,0,0.403584,-47.7873,-61.6867)">
                <g transform="matrix(2.17489,0,0,2.15167,300.161,338.513)">
                    <path d="M0,2.537C0.022,2.91 0.132,3.299 0.36,3.601C0.67,4.012 1.224,4.246 1.734,4.126C2.267,4 2.684,3.65 2.904,3.147C3.045,2.826 3.074,2.48 3.089,2.135C3.133,1.932 3.159,1.725 3.177,1.53C3.242,0.808 3.209,-0.072 2.878,-0.735C2.658,-1.176 2.303,-1.524 1.804,-1.617C1.314,-1.709 0.822,-1.465 0.532,-1.074L0.468,-0.967C0.346,-0.839 0.242,-0.692 0.165,-0.529C-0.011,-0.151 -0.074,0.315 -0.088,0.731C-0.1,1.089 -0.07,1.447 -0.013,1.8C-0.017,2.046 -0.014,2.293 0,2.537" style="fill:rgb(83,161,255);fill-rule:nonzero;"/>
                </g>
                <g transform="matrix(2.17489,0,0,2.15167,321.254,338.513)">
                    <path d="M0,2.537C0.022,2.91 0.132,3.299 0.36,3.601C0.67,4.012 1.224,4.246 1.734,4.126C2.267,4 2.684,3.65 2.904,3.147C3.045,2.826 3.074,2.48 3.089,2.135C3.133,1.932 3.159,1.725 3.177,1.53C3.242,0.808 3.209,-0.072 2.878,-0.735C2.658,-1.176 2.303,-1.524 1.804,-1.617C1.314,-1.709 0.822,-1.465 0.532,-1.074L0.468,-0.967C0.346,-0.839 0.242,-0.692 0.165,-0.529C-0.011,-0.151 -0.074,0.315 -0.088,0.731C-0.1,1.089 -0.07,1.447 -0.013,1.8C-0.017,2.046 -0.014,2.293 0,2.537" style="fill:rgb(83,161,255);fill-rule:nonzero;"/>
                </g>
                <g transform="matrix(1,0,0,1,310.249,349.779)">
                    <path d="M0,2.446C1.353,2.31 2.708,2.182 4.058,2.021C4.733,1.941 5.408,1.855 6.083,1.78C6.375,1.747 6.66,1.717 6.952,1.725C7.426,1.738 7.729,1.594 8.127,1.345C8.368,1.194 8.449,0.824 8.374,0.572C8.282,0.268 8.063,0.121 7.766,0.045C7.347,-0.063 7.056,-0.039 6.645,0.101C6.344,0.204 6.021,0.255 5.708,0.315C5.066,0.438 4.423,0.559 3.781,0.68C2.469,0.929 1.164,1.211 -0.142,1.484C-0.753,1.611 -0.627,2.509 0,2.446" style="fill:rgb(0,65,145);fill-rule:nonzero;"/>
                </g>
                <g transform="matrix(1,0,0,1,277.03,358.137)">
                    <path d="M0,5.265L76.856,5.265L76.856,45.999L0,45.999L0,5.265ZM16.402,2.207C16.783,1.703 17.189,1.218 17.617,0.753C18.023,0.312 18.387,-0.044 18.853,-0.461C19.09,-0.672 19.346,-0.888 19.581,-1.12C22.241,0.609 25.235,1.996 28.469,2.959L15.856,2.959C16.035,2.707 16.215,2.454 16.402,2.207M13.433,-1.031C12.098,-0.657 10.742,-0.352 9.378,-0.105C6.995,0.328 4.576,0.566 2.154,0.62C2.79,-2.242 3.427,-5.103 4.074,-7.962C4.664,-10.57 5.387,-13.19 5.805,-15.839C6.567,-15.702 7.336,-15.754 8.095,-15.928C9.682,-10.448 13.299,-5.625 18.241,-2.041C18.18,-1.994 18.118,-1.948 18.059,-1.9C17.867,-2.082 17.607,-2.203 17.312,-2.188C16.036,-2.12 14.668,-1.378 13.433,-1.031M5.117,-19.337C5.122,-19.757 5.175,-20.176 5.256,-20.588C5.47,-21.684 5.942,-22.731 6.469,-23.709C7.45,-25.53 8.796,-27.693 10.837,-28.433C11.751,-28.765 12.864,-28.773 13.688,-28.204C14.357,-27.742 14.701,-26.976 14.881,-26.199C14.994,-25.21 14.715,-24.066 14.427,-23.288C13.887,-21.835 12.891,-20.611 11.69,-19.647C10.542,-18.726 9.102,-17.84 7.654,-17.506C6.926,-17.338 6.151,-17.369 5.542,-17.846C5.098,-18.195 5.011,-18.6 4.961,-19.046C5.003,-19.148 5.052,-19.248 5.117,-19.337M39.2,-46.613C55.575,-46.613 68.896,-35.664 68.896,-22.205C68.896,-22.024 68.884,-21.845 68.879,-21.665C68.603,-22.293 68.283,-22.902 67.941,-23.49C66.557,-25.871 64.663,-28.486 61.72,-28.868C60.383,-29.042 58.995,-28.726 58.006,-27.776C57.091,-26.897 56.65,-25.662 56.591,-24.411C56.456,-21.561 57.417,-18.841 59.743,-17.104C61.78,-15.583 64.526,-13.825 67.171,-14.302C67.181,-14.235 67.196,-14.169 67.207,-14.103C63.133,-4.616 52.12,2.203 39.2,2.203C25.112,2.203 13.294,-5.905 10.265,-16.739C11.343,-17.285 12.355,-17.985 13.233,-18.641C15.559,-20.378 16.52,-23.098 16.385,-25.948C16.326,-27.199 15.885,-28.434 14.97,-29.313C13.981,-30.263 12.593,-30.579 11.256,-30.405C11.253,-30.405 11.251,-30.404 11.248,-30.404C15.355,-39.839 26.326,-46.613 39.2,-46.613M67.434,-16.309C66.826,-15.832 66.05,-15.801 65.322,-15.969C63.874,-16.303 62.434,-17.188 61.286,-18.11C60.085,-19.074 59.089,-20.297 58.55,-21.751C58.261,-22.529 57.982,-23.672 58.095,-24.662C58.275,-25.439 58.619,-26.205 59.288,-26.667C60.112,-27.236 61.225,-27.228 62.139,-26.896C64.18,-26.156 65.526,-23.992 66.507,-22.172C67.034,-21.194 67.506,-20.147 67.72,-19.051C67.801,-18.639 67.854,-18.22 67.859,-17.8C67.924,-17.71 67.973,-17.611 68.015,-17.509C67.965,-17.062 67.879,-16.657 67.434,-16.309M68.903,-6.425C69.549,-3.566 70.186,-0.705 70.822,2.157C68.4,2.103 65.982,1.865 63.598,1.433C62.234,1.185 60.878,0.881 59.543,0.506C58.858,0.314 58.131,0.002 57.402,-0.251C61.877,-2.845 65.526,-6.363 67.944,-10.476C68.259,-9.121 68.598,-7.771 68.903,-6.425M55.062,2.959C55.064,2.912 55.067,2.865 55.061,2.82C55.043,2.7 54.985,2.6 54.923,2.499L54.802,2.311C54.721,2.186 54.641,2.061 54.56,1.936C54.441,1.751 54.322,1.567 54.203,1.382C54.473,1.262 54.739,1.136 55.004,1.009C56.115,1.832 57.804,2.102 59.124,2.458C59.8,2.64 60.479,2.807 61.162,2.959L55.062,2.959ZM53,1.894L53.405,2.589C53.477,2.712 53.549,2.836 53.621,2.959L49.929,2.959C50.978,2.647 52.004,2.293 53,1.894M72.914,2.959C72.146,-0.304 71.364,-3.563 70.572,-6.82C70.093,-8.789 69.668,-10.797 69.132,-12.766C70.466,-15.703 71.202,-18.883 71.202,-22.205C71.202,-36.935 56.846,-48.919 39.2,-48.919C24.414,-48.919 11.947,-40.501 8.292,-29.108C6.93,-28.041 5.886,-26.491 5.035,-25.027C4.174,-23.546 3.436,-21.932 3.241,-20.212C3.105,-19.01 3.115,-16.749 4.347,-16.028C3.548,-13.521 3.024,-10.905 2.404,-8.358C1.61,-5.088 0.824,-1.816 0.053,1.459C-0.055,1.918 0.402,2.498 0.87,2.505C3.818,2.548 6.761,2.355 9.667,1.85C11.076,1.605 12.472,1.293 13.852,0.921C14.388,0.776 14.984,0.645 15.578,0.486C15.216,0.891 14.863,1.307 14.541,1.743C14.321,2.041 14.106,2.348 13.905,2.658C13.847,2.749 13.8,2.852 13.762,2.959L-2.305,2.959L-2.305,48.304L1.346,48.304C1.348,48.528 1.359,48.751 1.368,48.974C1.387,49.465 1.401,49.957 1.43,50.447C1.459,50.937 1.493,51.426 1.524,51.916C1.554,52.392 1.53,52.917 1.636,53.382C1.741,53.844 2.089,54.184 2.581,54.178C3.029,54.173 3.467,53.829 3.505,53.359C3.548,52.832 3.454,52.277 3.412,51.751C3.373,51.262 3.334,50.774 3.295,50.286C3.256,49.798 3.199,49.312 3.148,48.825C3.131,48.656 3.115,48.481 3.096,48.304L74.746,48.304C74.738,48.362 74.729,48.421 74.721,48.476C74.648,48.968 74.599,49.461 74.551,49.956C74.504,50.434 74.457,50.911 74.411,51.389C74.35,52.006 74.134,52.815 74.732,53.236C74.965,53.401 75.295,53.473 75.562,53.338C75.983,53.125 76.157,52.789 76.181,52.331C76.194,52.074 76.207,51.816 76.22,51.559C76.244,51.079 76.268,50.599 76.293,50.118C76.317,49.637 76.34,49.157 76.34,48.675C76.34,48.553 76.342,48.429 76.342,48.304L79.162,48.304L79.162,2.959L72.914,2.959Z" style="fill:rgb(0,65,145);fill-rule:nonzero;"/>
                </g>
            </g>
        </g>
        <g transform="matrix(1.4024,0,0,1.31508,-29.8479,-20.5189)">
            <ellipse cx="75.993" cy="74.723" rx="0.496" ry="0.604" style="fill:white;"/>
        </g>
        <g transform="matrix(1.4024,0,0,1.31508,-21.4479,-20.5189)">
            <ellipse cx="75.993" cy="74.723" rx="0.496" ry="0.604" style="fill:white;"/>
        </g>
    </g>
    <g transform="matrix(2.42379,0,0,2.42379,16.0481,153.934)">
        <ellipse cx="23.624" cy="24.521" rx="20.768" ry="20.004" style="fill:rgb(255,244,217);"/>
        <g transform="matrix(0.641254,0,0,0.558581,-179.969,-87.4767)">
            <g transform="matrix(1,0,0,1.14217,0.114686,-30.3602)">
                <path d="M314.507,182.683C314.507,185 312.628,186.879 310.31,186.879C307.993,186.879 306.114,185 306.114,182.683C306.114,180.365 307.993,178.486 310.31,178.486C312.628,178.486 314.507,180.365 314.507,182.683Z" style="fill:rgb(255,215,0);stroke:rgb(228,164,2);stroke-width:0.37px;stroke-linecap:round;"/>
            </g>
            <g transform="matrix(1,0,0,1.14217,0.114686,-30.3602)">
                <path d="M302.822,193.027C302.822,189.691 306.174,186.987 310.31,186.987C314.446,186.987 317.799,189.691 317.799,193.027" style="fill:none;stroke:rgb(228,163,0);stroke-width:0.37px;stroke-linecap:round;"/>
            </g>
            <g transform="matrix(1,0,0,1.14217,0.114686,-30.3602)">
                <path d="M339.777,230.532L339.777,172.191L294.458,172.191L294.458,218.046L306.713,230.532L339.777,230.532Z" style="fill:none;stroke:rgb(228,163,0);stroke-width:0.37px;stroke-linecap:round;"/>
            </g>
            <g transform="matrix(1,0,0,1.14217,0.114686,-30.3602)">
                <path d="M294.458,218.046L306.713,218.046L306.713,230.532" style="fill:none;stroke:rgb(228,163,0);stroke-width:0.37px;stroke-linecap:round;"/>
            </g>
            <g transform="matrix(1,0,0,1.14217,0.114686,-30.3602)">
                <path d="M299.987,197.25L333.65,197.25" style="fill:none;stroke:rgb(228,163,0);stroke-width:0.37px;stroke-linecap:round;"/>
            </g>
            <g transform="matrix(1,0,0,1.14217,0.114686,-30.3602)">
                <path d="M299.987,202.895L333.65,202.895" style="fill:none;stroke:rgb(228,163,0);stroke-width:0.37px;stroke-linecap:round;"/>
            </g>
            <g transform="matrix(1,0,0,1.14217,0.114686,-30.3602)">
                <path d="M300.286,208.127L333.949,208.127" style="fill:none;stroke:rgb(228,163,0);stroke-width:0.37px;stroke-linecap:round;"/>
            </g>
            <g transform="matrix(1,0,0,1.14217,0.114686,-30.3602)">
                <path d="M300.586,213.359L334.249,213.359" style="fill:none;stroke:rgb(228,163,0);stroke-width:0.37px;stroke-linecap:round;"/>
            </g>
            <g transform="matrix(1,0,0,1.14217,0.114686,-30.3602)">
                <rect x="322.11" y="180.094" width="12.139" height="9.913" style="fill:none;stroke:rgb(228,163,0);stroke-width:0.37px;stroke-linecap:round;"/>
            </g>
        </g>
        <g transform="matrix(1,0,0,1,0.747052,-0.578363)">
            <path d="M27.86,12.115L31.709,15.965" style="fill:none;stroke:rgb(228,164,2);stroke-width:0.36px;stroke-linecap:round;stroke-miterlimit:1.5;"/>
        </g>
        <g transform="matrix(1,0,0,-1,0.747052,27.5019)">
            <path d="M27.86,12.115L31.709,15.965" style="fill:none;stroke:rgb(228,164,2);stroke-width:0.36px;stroke-linecap:round;stroke-miterlimit:1.5;"/>
        </g>
    </g>
</svg>
