<?xml version="1.0" encoding="UTF-8" standalone="no"?>
<!DOCTYPE svg PUBLIC "-//W3C//DTD SVG 1.1//EN" "http://www.w3.org/Graphics/SVG/1.1/DTD/svg11.dtd">
<svg width="100%" height="100%" viewBox="0 0 50 50" version="1.1" xmlns="http://www.w3.org/2000/svg" xmlns:xlink="http://www.w3.org/1999/xlink" xml:space="preserve" xmlns:serif="http://www.serif.com/" style="fill-rule:evenodd;clip-rule:evenodd;stroke-linejoin:round;stroke-miterlimit:2;">
    <g transform="matrix(0.857343,0,0,0.857343,-46.3464,-45.2003)">
        <g>
            <g transform="matrix(1,0,0,0.891571,-0.603829,7.38478)">
                <path d="M82.22,57.944C94.537,57.944 103.31,69.474 104.537,83.556C105.351,92.898 109.32,97.246 108.139,98.519C101.264,105.926 91.699,109.169 82.22,109.169C74.159,109.169 64.256,107.686 60.334,100.326C58.263,96.44 59.903,88.441 59.903,83.556C59.903,69.42 69.903,57.944 82.22,57.944Z" style="fill:rgb(208,229,255);"/>
            </g>
            <g transform="matrix(1.31977,0,0,1.20967,-30.2123,-15.8093)">
                <ellipse cx="84.734" cy="73.838" rx="9.749" ry="8.599" style="fill:white;"/>
            </g>
            <g transform="matrix(0.409416,0,0,0.403584,-47.7873,-61.6867)">
                <g transform="matrix(2.17489,0,0,2.15167,300.161,338.513)">
                    <path d="M0,2.537C0.022,2.91 0.132,3.299 0.36,3.601C0.67,4.012 1.224,4.246 1.734,4.126C2.267,4 2.684,3.65 2.904,3.147C3.045,2.826 3.074,2.48 3.089,2.135C3.133,1.932 3.159,1.725 3.177,1.53C3.242,0.808 3.209,-0.072 2.878,-0.735C2.658,-1.176 2.303,-1.524 1.804,-1.617C1.314,-1.709 0.822,-1.465 0.532,-1.074L0.468,-0.967C0.346,-0.839 0.242,-0.692 0.165,-0.529C-0.011,-0.151 -0.074,0.315 -0.088,0.731C-0.1,1.089 -0.07,1.447 -0.013,1.8C-0.017,2.046 -0.014,2.293 0,2.537" style="fill:rgb(83,161,255);fill-rule:nonzero;"/>
                </g>
                <g transform="matrix(2.17489,0,0,2.15167,321.254,338.513)">
                    <path d="M0,2.537C0.022,2.91 0.132,3.299 0.36,3.601C0.67,4.012 1.224,4.246 1.734,4.126C2.267,4 2.684,3.65 2.904,3.147C3.045,2.826 3.074,2.48 3.089,2.135C3.133,1.932 3.159,1.725 3.177,1.53C3.242,0.808 3.209,-0.072 2.878,-0.735C2.658,-1.176 2.303,-1.524 1.804,-1.617C1.314,-1.709 0.822,-1.465 0.532,-1.074L0.468,-0.967C0.346,-0.839 0.242,-0.692 0.165,-0.529C-0.011,-0.151 -0.074,0.315 -0.088,0.731C-0.1,1.089 -0.07,1.447 -0.013,1.8C-0.017,2.046 -0.014,2.293 0,2.537" style="fill:rgb(83,161,255);fill-rule:nonzero;"/>
                </g>
                <g transform="matrix(1,0,0,1,310.249,349.779)">
                    <path d="M0,2.446C1.353,2.31 2.708,2.182 4.058,2.021C4.733,1.941 5.408,1.855 6.083,1.78C6.375,1.747 6.66,1.717 6.952,1.725C7.426,1.738 7.729,1.594 8.127,1.345C8.368,1.194 8.449,0.824 8.374,0.572C8.282,0.268 8.063,0.121 7.766,0.045C7.347,-0.063 7.056,-0.039 6.645,0.101C6.344,0.204 6.021,0.255 5.708,0.315C5.066,0.438 4.423,0.559 3.781,0.68C2.469,0.929 1.164,1.211 -0.142,1.484C-0.753,1.611 -0.627,2.509 0,2.446" style="fill:rgb(0,65,145);fill-rule:nonzero;"/>
                </g>
                <g transform="matrix(1,0,0,1,277.03,358.137)">
                    <path d="M0,5.265L76.856,5.265L76.856,45.999L0,45.999L0,5.265ZM16.402,2.207C16.783,1.703 17.189,1.218 17.617,0.753C18.023,0.312 18.387,-0.044 18.853,-0.461C19.09,-0.672 19.346,-0.888 19.581,-1.12C22.241,0.609 25.235,1.996 28.469,2.959L15.856,2.959C16.035,2.707 16.215,2.454 16.402,2.207M13.433,-1.031C12.098,-0.657 10.742,-0.352 9.378,-0.105C6.995,0.328 4.576,0.566 2.154,0.62C2.79,-2.242 3.427,-5.103 4.074,-7.962C4.664,-10.57 5.387,-13.19 5.805,-15.839C6.567,-15.702 7.336,-15.754 8.095,-15.928C9.682,-10.448 13.299,-5.625 18.241,-2.041C18.18,-1.994 18.118,-1.948 18.059,-1.9C17.867,-2.082 17.607,-2.203 17.312,-2.188C16.036,-2.12 14.668,-1.378 13.433,-1.031M5.117,-19.337C5.122,-19.757 5.175,-20.176 5.256,-20.588C5.47,-21.684 5.942,-22.731 6.469,-23.709C7.45,-25.53 8.796,-27.693 10.837,-28.433C11.751,-28.765 12.864,-28.773 13.688,-28.204C14.357,-27.742 14.701,-26.976 14.881,-26.199C14.994,-25.21 14.715,-24.066 14.427,-23.288C13.887,-21.835 12.891,-20.611 11.69,-19.647C10.542,-18.726 9.102,-17.84 7.654,-17.506C6.926,-17.338 6.151,-17.369 5.542,-17.846C5.098,-18.195 5.011,-18.6 4.961,-19.046C5.003,-19.148 5.052,-19.248 5.117,-19.337M39.2,-46.613C55.575,-46.613 68.896,-35.664 68.896,-22.205C68.896,-22.024 68.884,-21.845 68.879,-21.665C68.603,-22.293 68.283,-22.902 67.941,-23.49C66.557,-25.871 64.663,-28.486 61.72,-28.868C60.383,-29.042 58.995,-28.726 58.006,-27.776C57.091,-26.897 56.65,-25.662 56.591,-24.411C56.456,-21.561 57.417,-18.841 59.743,-17.104C61.78,-15.583 64.526,-13.825 67.171,-14.302C67.181,-14.235 67.196,-14.169 67.207,-14.103C63.133,-4.616 52.12,2.203 39.2,2.203C25.112,2.203 13.294,-5.905 10.265,-16.739C11.343,-17.285 12.355,-17.985 13.233,-18.641C15.559,-20.378 16.52,-23.098 16.385,-25.948C16.326,-27.199 15.885,-28.434 14.97,-29.313C13.981,-30.263 12.593,-30.579 11.256,-30.405C11.253,-30.405 11.251,-30.404 11.248,-30.404C15.355,-39.839 26.326,-46.613 39.2,-46.613M67.434,-16.309C66.826,-15.832 66.05,-15.801 65.322,-15.969C63.874,-16.303 62.434,-17.188 61.286,-18.11C60.085,-19.074 59.089,-20.297 58.55,-21.751C58.261,-22.529 57.982,-23.672 58.095,-24.662C58.275,-25.439 58.619,-26.205 59.288,-26.667C60.112,-27.236 61.225,-27.228 62.139,-26.896C64.18,-26.156 65.526,-23.992 66.507,-22.172C67.034,-21.194 67.506,-20.147 67.72,-19.051C67.801,-18.639 67.854,-18.22 67.859,-17.8C67.924,-17.71 67.973,-17.611 68.015,-17.509C67.965,-17.062 67.879,-16.657 67.434,-16.309M68.903,-6.425C69.549,-3.566 70.186,-0.705 70.822,2.157C68.4,2.103 65.982,1.865 63.598,1.433C62.234,1.185 60.878,0.881 59.543,0.506C58.858,0.314 58.131,0.002 57.402,-0.251C61.877,-2.845 65.526,-6.363 67.944,-10.476C68.259,-9.121 68.598,-7.771 68.903,-6.425M55.062,2.959C55.064,2.912 55.067,2.865 55.061,2.82C55.043,2.7 54.985,2.6 54.923,2.499L54.802,2.311C54.721,2.186 54.641,2.061 54.56,1.936C54.441,1.751 54.322,1.567 54.203,1.382C54.473,1.262 54.739,1.136 55.004,1.009C56.115,1.832 57.804,2.102 59.124,2.458C59.8,2.64 60.479,2.807 61.162,2.959L55.062,2.959ZM53,1.894L53.405,2.589C53.477,2.712 53.549,2.836 53.621,2.959L49.929,2.959C50.978,2.647 52.004,2.293 53,1.894M72.914,2.959C72.146,-0.304 71.364,-3.563 70.572,-6.82C70.093,-8.789 69.668,-10.797 69.132,-12.766C70.466,-15.703 71.202,-18.883 71.202,-22.205C71.202,-36.935 56.846,-48.919 39.2,-48.919C24.414,-48.919 11.947,-40.501 8.292,-29.108C6.93,-28.041 5.886,-26.491 5.035,-25.027C4.174,-23.546 3.436,-21.932 3.241,-20.212C3.105,-19.01 3.115,-16.749 4.347,-16.028C3.548,-13.521 3.024,-10.905 2.404,-8.358C1.61,-5.088 0.824,-1.816 0.053,1.459C-0.055,1.918 0.402,2.498 0.87,2.505C3.818,2.548 6.761,2.355 9.667,1.85C11.076,1.605 12.472,1.293 13.852,0.921C14.388,0.776 14.984,0.645 15.578,0.486C15.216,0.891 14.863,1.307 14.541,1.743C14.321,2.041 14.106,2.348 13.905,2.658C13.847,2.749 13.8,2.852 13.762,2.959L-2.305,2.959L-2.305,48.304L1.346,48.304C1.348,48.528 1.359,48.751 1.368,48.974C1.387,49.465 1.401,49.957 1.43,50.447C1.459,50.937 1.493,51.426 1.524,51.916C1.554,52.392 1.53,52.917 1.636,53.382C1.741,53.844 2.089,54.184 2.581,54.178C3.029,54.173 3.467,53.829 3.505,53.359C3.548,52.832 3.454,52.277 3.412,51.751C3.373,51.262 3.334,50.774 3.295,50.286C3.256,49.798 3.199,49.312 3.148,48.825C3.131,48.656 3.115,48.481 3.096,48.304L74.746,48.304C74.738,48.362 74.729,48.421 74.721,48.476C74.648,48.968 74.599,49.461 74.551,49.956C74.504,50.434 74.457,50.911 74.411,51.389C74.35,52.006 74.134,52.815 74.732,53.236C74.965,53.401 75.295,53.473 75.562,53.338C75.983,53.125 76.157,52.789 76.181,52.331C76.194,52.074 76.207,51.816 76.22,51.559C76.244,51.079 76.268,50.599 76.293,50.118C76.317,49.637 76.34,49.157 76.34,48.675C76.34,48.553 76.342,48.429 76.342,48.304L79.162,48.304L79.162,2.959L72.914,2.959Z" style="fill:rgb(0,65,145);fill-rule:nonzero;"/>
                </g>
            </g>
        </g>
        <g transform="matrix(1.4024,0,0,1.31508,-29.8479,-20.5189)">
            <ellipse cx="75.993" cy="74.723" rx="0.496" ry="0.604" style="fill:white;"/>
        </g>
        <g transform="matrix(1.4024,0,0,1.31508,-21.4479,-20.5189)">
            <ellipse cx="75.993" cy="74.723" rx="0.496" ry="0.604" style="fill:white;"/>
        </g>
    </g>
</svg>
