<?xml version="1.0" encoding="UTF-8" standalone="no"?>
<!DOCTYPE svg PUBLIC "-//W3C//DTD SVG 1.1//EN" "http://www.w3.org/Graphics/SVG/1.1/DTD/svg11.dtd">
<svg width="100%" height="100%" viewBox="0 0 50 50" version="1.1" xmlns="http://www.w3.org/2000/svg" xmlns:xlink="http://www.w3.org/1999/xlink" xml:space="preserve" xmlns:serif="http://www.serif.com/" style="fill-rule:evenodd;clip-rule:evenodd;stroke-linejoin:round;stroke-miterlimit:2;">
    <g transform="matrix(0.607173,0,0,0.607173,-89.422,-181.346)">
        <g transform="matrix(0,-1,-1,0,219.947,328.346)">
            <path d="M-7.208,-7.208C-11.188,-7.208 -14.415,-3.981 -14.415,0C-14.415,3.98 -11.188,7.208 -7.208,7.208C-3.228,7.208 -0.001,3.98 -0.001,0C-0.001,-3.981 -3.228,-7.208 -7.208,-7.208" style="fill:rgb(255,203,227);fill-rule:nonzero;"/>
        </g>
        <g transform="matrix(1,0,0,1,161.624,339.455)">
            <path d="M0,4.91C3.801,12.11 8.894,20.173 13.495,26.335C14.673,27.912 16.1,29.302 17.794,30.305C26.464,35.438 33.182,27.544 35.128,20.02C36.68,14.024 36.505,7.524 39.234,1.964C41.453,-2.557 45.388,-6.011 47.939,-10.352C50.491,-14.694 51.25,-20.938 47.462,-24.257C46,-25.54 39.376,-30.528 30.263,-26.658C24.782,-24.331 21.951,-17.481 16.193,-15.965C10.72,-14.525 4.506,-18.439 -0.318,-13.47C-1.738,-12.008 -2.64,-10.108 -3,-8.102C-3.819,-3.529 -2.115,0.904 0,4.91" style="fill:rgb(255,203,227);fill-rule:nonzero;"/>
        </g>
        <g transform="matrix(1,0,0,1,191.001,339.847)">
            <path d="M0,16.503C-6.752,23.787 -17.455,27.316 -27.201,25.065C-37.28,22.735 -43.131,12.968 -38.272,3.386C-33.858,-5.317 -23.591,-10.344 -14.106,-10.497C-2.369,-10.686 8.423,-2.028 3.845,10.513C3.568,11.271 4.776,11.597 5.05,10.846C9.16,-0.413 1.419,-9.795 -9.753,-11.457C-20.972,-13.125 -34.067,-7.59 -39.352,2.755C-43.874,11.607 -40.046,21.413 -30.913,25.182C-20.139,29.628 -6.857,25.737 0.884,17.387C1.43,16.798 0.548,15.911 0,16.503" style="fill:rgb(175,1,83);fill-rule:nonzero;"/>
        </g>
        <g transform="matrix(1,0,0,1,184.862,340.115)">
            <path d="M0,12.193C-5.066,16.791 -13.012,19.261 -19.794,17.797C-26.866,16.269 -31.243,10.007 -27.381,3.228C-23.94,-2.813 -16.446,-6.328 -9.73,-6.827C-2.155,-7.39 7.306,-3.228 4.4,5.988C4.158,6.757 5.364,7.087 5.605,6.321C8.065,-1.481 2.043,-7.05 -5.348,-7.972C-13.843,-9.032 -24.083,-5.046 -28.461,2.597C-32.023,8.817 -29.461,15.657 -22.821,18.213C-14.991,21.225 -5.18,18.58 0.884,13.077C1.481,12.535 0.595,11.653 0,12.193" style="fill:rgb(175,1,83);fill-rule:nonzero;"/>
        </g>
        <g transform="matrix(1,0,0,1,181.797,362.845)">
            <path d="M0,-33.371C7.272,-42.425 20.912,-41.065 29.903,-35.45C37.839,-30.493 45.192,-19.871 40.018,-10.467C34.436,-0.322 20.043,-1.28 11.198,-5.916C2.656,-10.392 -4.777,-19.856 -1.781,-29.924C-1.551,-30.696 -2.757,-31.026 -2.987,-30.256C-9.532,-8.263 29.53,11.031 41.097,-9.836C46.223,-19.083 40,-29.777 32.338,-35.309C22.815,-42.185 7.267,-44.402 -0.884,-34.255C-1.383,-33.634 -0.504,-32.744 0,-33.371" style="fill:rgb(175,1,83);fill-rule:nonzero;"/>
        </g>
        <g transform="matrix(1,0,0,1,187.282,344.842)">
            <path d="M0,-13.822C9.246,-24.54 35.857,-12.404 30.924,2.017C28.016,10.52 15.844,8.82 9.688,5.782C3.709,2.834 -2.028,-2.946 -1.519,-10.075C-1.462,-10.878 -2.712,-10.874 -2.769,-10.075C-3.376,-1.575 4.13,5.105 11.456,7.899C17.954,10.377 28.154,10.718 31.712,3.342C35.116,-3.717 29.072,-11.355 23.436,-15.03C16.473,-19.57 5.219,-21.781 -0.884,-14.706C-1.407,-14.099 -0.527,-13.212 0,-13.822" style="fill:rgb(175,1,83);fill-rule:nonzero;"/>
        </g>
        <g transform="matrix(-0.558144,0.829744,0.829744,0.558144,161.133,358.761)">
            <path d="M3.121,-5.688C3.892,-3.303 4.061,-0.829 3.62,1.638C3.565,1.951 3.065,1.922 3.121,1.606C3.555,-0.821 3.389,-3.247 2.63,-5.592C2.532,-5.898 3.022,-5.991 3.121,-5.688" style="fill:rgb(175,1,83);fill-rule:nonzero;"/>
        </g>
        <g transform="matrix(0,-1,-1,0,154.187,356.25)">
            <path d="M-0.31,-0.19L-0.19,-0.19C0.131,-0.19 0.132,0.31 -0.19,0.31L-0.31,0.31C-0.632,0.31 -0.632,-0.19 -0.31,-0.19" style="fill:rgb(175,1,83);fill-rule:nonzero;"/>
        </g>
        <g transform="matrix(-0.518582,0.855028,0.855028,0.518582,159.641,358.718)">
            <path d="M1.396,-2.432C1.718,-1.401 1.883,-0.341 1.895,0.739C1.899,1.062 1.4,1.052 1.396,0.731C1.384,-0.308 1.221,-1.322 0.909,-2.313C0.813,-2.62 1.3,-2.738 1.396,-2.432" style="fill:rgb(175,1,83);fill-rule:nonzero;"/>
        </g>
        <g transform="matrix(0.934155,0.356868,0.356868,-0.934155,217.201,353.848)">
            <path d="M1.629,-0.283C2.949,2.674 3.109,5.87 2.096,8.946C1.997,9.253 1.53,9.073 1.629,8.768C2.601,5.812 2.442,2.763 1.172,-0.079C1.041,-0.374 1.498,-0.578 1.629,-0.283" style="fill:rgb(175,1,83);fill-rule:nonzero;"/>
        </g>
        <g transform="matrix(0.968104,0.25055,0.25055,-0.968104,219.273,351.218)">
            <path d="M0.335,-0.039C0.715,0.786 0.888,1.655 0.835,2.564C0.816,2.884 0.316,2.893 0.335,2.571C0.384,1.753 0.248,0.962 -0.096,0.215C-0.229,-0.076 0.2,-0.332 0.335,-0.039" style="fill:rgb(175,1,83);fill-rule:nonzero;"/>
        </g>
        <g transform="matrix(1,0,0,1,222.407,343.47)">
            <path d="M0,0.5C0.322,0.5 0.322,0 0,0C-0.322,0 -0.322,0.5 0,0.5" style="fill:rgb(175,1,83);fill-rule:nonzero;"/>
        </g>
        <g transform="matrix(-0.655322,0.75535,0.75535,0.655322,192.138,350.418)">
            <path d="M3.459,-7.6C4.445,-4.63 4.224,-1.527 3.951,1.541C3.922,1.862 3.431,1.765 3.459,1.448C3.724,-1.535 3.944,-4.55 2.985,-7.439C2.884,-7.744 3.358,-7.906 3.459,-7.6" style="fill:rgb(175,1,83);fill-rule:nonzero;"/>
        </g>
        <g transform="matrix(-0.536384,0.843974,0.843974,0.536384,190.26,349.916)">
            <path d="M1.385,-2.457C1.724,-1.427 1.887,-0.363 1.885,0.722C1.884,1.045 1.385,1.024 1.385,0.703C1.388,-0.34 1.222,-1.357 0.897,-2.348C0.796,-2.655 1.286,-2.761 1.385,-2.457" style="fill:rgb(175,1,83);fill-rule:nonzero;"/>
        </g>
        <g transform="matrix(1,0,0,1,183.347,346.71)">
            <path d="M0,0.5C0.322,0.5 0.322,0 0,0C-0.322,0 -0.322,0.5 0,0.5" style="fill:rgb(175,1,83);fill-rule:nonzero;"/>
        </g>
        <g transform="matrix(0.998054,0.0623508,0.0623508,-0.998054,194.001,349.54)">
            <path d="M0.142,-0.006C0.669,1.473 0.844,2.991 0.641,4.548C0.6,4.865 0.101,4.837 0.142,4.517C0.333,3.051 0.192,1.612 -0.305,0.22C-0.412,-0.081 0.035,-0.308 0.142,-0.006" style="fill:rgb(175,1,83);fill-rule:nonzero;"/>
        </g>
        <g transform="matrix(0.99938,-0.0352157,-0.0352157,-0.99938,193.236,348.948)">
            <path d="M-0.033,-0.001C0.126,0.574 0.286,1.149 0.445,1.724C0.53,2.034 0.053,2.185 -0.033,1.874L-0.51,0.149C-0.596,-0.162 -0.119,-0.311 -0.033,-0.001" style="fill:rgb(175,1,83);fill-rule:nonzero;"/>
        </g>
        <g transform="matrix(1,0,0,1,194.387,343.11)">
            <path d="M0,0.5C0.322,0.5 0.322,0 0,0C-0.322,0 -0.322,0.5 0,0.5" style="fill:rgb(175,1,83);fill-rule:nonzero;"/>
        </g>
        <g transform="matrix(1,0,0,1,192.947,340.11)">
            <path d="M0,0.5C0.322,0.5 0.322,0 0,0C-0.322,0 -0.322,0.5 0,0.5" style="fill:rgb(175,1,83);fill-rule:nonzero;"/>
        </g>
        <g transform="matrix(0.710903,0.70329,0.70329,-0.710903,186.004,357.667)">
            <path d="M1.688,-0.701C1.992,0.86 2.161,2.436 2.188,4.026C2.193,4.348 1.693,4.352 1.688,4.028C1.661,2.481 1.501,0.948 1.205,-0.571C1.143,-0.885 1.626,-1.018 1.688,-0.701" style="fill:rgb(175,1,83);fill-rule:nonzero;"/>
        </g>
        <g transform="matrix(0.793935,0.608003,0.608003,-0.793935,187.572,356.432)">
            <path d="M0.572,-0.202C0.794,0.366 0.956,0.946 1.068,1.546C1.126,1.862 0.631,1.927 0.572,1.611C0.469,1.054 0.315,0.516 0.11,-0.012C-0.007,-0.312 0.455,-0.503 0.572,-0.202" style="fill:rgb(175,1,83);fill-rule:nonzero;"/>
        </g>
        <g transform="matrix(-0.999552,0.0299153,0.0299153,0.999552,180.84,335.645)">
            <path d="M0.129,-2.136C0.428,-1.469 0.59,-0.774 0.629,-0.045C0.645,0.278 0.146,0.293 0.129,-0.03C0.092,-0.717 -0.068,-1.361 -0.349,-1.989C-0.481,-2.282 -0.001,-2.426 0.129,-2.136" style="fill:rgb(175,1,83);fill-rule:nonzero;"/>
        </g>
        <g transform="matrix(-1,-0.000272035,-0.000272035,1,181.91,337.381)">
            <path d="M-0.027,-3.699C0.432,-2.512 0.599,-1.29 0.473,-0.023C0.441,0.294 -0.06,0.297 -0.027,-0.023C0.095,-1.245 -0.066,-2.422 -0.51,-3.566C-0.626,-3.866 -0.142,-3.996 -0.027,-3.699" style="fill:rgb(175,1,83);fill-rule:nonzero;"/>
        </g>
        <g transform="matrix(1,0,0,1,182.147,340.17)">
            <path d="M0,0.5C0.322,0.5 0.322,0 0,0C-0.321,0 -0.322,0.5 0,0.5" style="fill:rgb(175,1,83);fill-rule:nonzero;"/>
        </g>
        <g transform="matrix(0.771673,0.636019,0.636019,-0.771673,182.933,328.68)">
            <path d="M1.08,-0.394C1.073,0.731 1.226,1.836 1.55,2.913C1.641,3.219 1.173,3.394 1.08,3.086C0.745,1.968 0.575,0.822 0.581,-0.346C0.584,-0.665 1.082,-0.716 1.08,-0.394" style="fill:rgb(175,1,83);fill-rule:nonzero;"/>
        </g>
        <g transform="matrix(0.923803,0.382869,0.382869,-0.923803,184.795,329.824)">
            <path d="M0.273,-0.054C0.426,0.356 0.58,0.768 0.734,1.178C0.847,1.48 0.386,1.672 0.273,1.369C0.119,0.959 -0.036,0.549 -0.19,0.137C-0.302,-0.164 0.159,-0.356 0.273,-0.054" style="fill:rgb(175,1,83);fill-rule:nonzero;"/>
        </g>
        <g transform="matrix(1,0,0,1,188.327,325.83)">
            <path d="M0,0.5C0.322,0.5 0.322,0 0,0C-0.322,0 -0.322,0.5 0,0.5" style="fill:rgb(175,1,83);fill-rule:nonzero;"/>
        </g>
        <g transform="matrix(1,0,0,1,171.621,316.698)">
            <path d="M0,8.362C-2.758,8.258 -5.911,8.022 -7.314,5.248C-7.733,4.421 -8.241,3.094 -6.956,2.954C-5.414,2.786 -3.716,4.053 -2.766,5.096C-2.417,5.478 -1.814,5.074 -1.93,4.61C-2.193,3.55 -2.566,2.305 -2.524,1.205C-2.473,-0.163 -1.658,-0.033 -0.729,0.795C-0.373,1.111 -0.217,1.835 -0.082,2.252C0.589,4.306 0.461,6.644 -0.432,8.609C-0.696,9.191 0.166,9.7 0.432,9.114C1.669,6.392 1.99,1.581 -0.585,-0.588C-1.476,-1.338 -2.52,-1.312 -3.192,-0.315C-4.074,0.995 -3.238,3.493 -2.894,4.876C-2.616,4.714 -2.337,4.551 -2.059,4.389C-3.343,2.979 -9.027,-0.11 -8.757,3.812C-8.447,8.312 -3.603,9.226 0,9.362C0.644,9.385 0.643,8.385 0,8.362" style="fill:rgb(175,1,83);fill-rule:nonzero;"/>
        </g>
        <g transform="matrix(1,0,0,1,179.222,307.921)">
            <path d="M0,7.895C-0.82,6.723 -1.776,5.705 -2.724,4.64C-3.271,4.027 -4.083,3.17 -4.016,2.283C-3.864,0.299 -1.98,2.847 -1.759,3.4C-1.543,3.938 -0.85,3.834 -0.776,3.267C-0.707,2.725 -1.011,1.834 -0.437,1.466C1.081,0.495 0.826,3.707 0.763,4.023C0.492,5.4 -0.232,6.658 -0.864,7.895C-1.156,8.467 -0.293,8.974 0,8.4C0.991,6.458 2.973,3.133 1.27,1.045C0.71,0.36 -0.166,0.176 -0.942,0.603C-2.058,1.216 -1.642,2.223 -1.776,3.267C-1.449,3.223 -1.122,3.179 -0.794,3.134C-1.31,1.85 -3.828,-1.079 -4.901,1.308C-5.403,2.423 -4.744,3.7 -4.079,4.582C-3.073,5.916 -1.828,7.021 -0.864,8.4C-0.498,8.923 0.37,8.424 0,7.895" style="fill:rgb(175,1,83);fill-rule:nonzero;"/>
        </g>
    </g>
</svg>
