<?xml version="1.0" encoding="UTF-8" standalone="no"?>
<!DOCTYPE svg PUBLIC "-//W3C//DTD SVG 1.1//EN" "http://www.w3.org/Graphics/SVG/1.1/DTD/svg11.dtd">
<svg width="100%" height="100%" viewBox="0 0 50 50" version="1.1" xmlns="http://www.w3.org/2000/svg" xmlns:xlink="http://www.w3.org/1999/xlink" xml:space="preserve" xmlns:serif="http://www.serif.com/" style="fill-rule:evenodd;clip-rule:evenodd;stroke-linejoin:round;stroke-miterlimit:2;">
    <g transform="matrix(0.315283,0,0,0.318398,-99.7232,-102.228)">
        <g transform="matrix(2.87179,1.33324,-1.49814,3.16414,359.664,286.283)">
            <path d="M25.867,6.073C37.053,6.073 46.135,14.467 46.135,24.805C46.135,35.144 37.286,37.6 26.099,37.6C23.854,37.6 18.962,44.026 17.136,43.542C9.864,41.612 5.598,33.069 5.598,24.805C5.598,14.467 14.68,6.073 25.867,6.073Z" style="fill:rgb(255,234,236);"/>
        </g>
        <g transform="matrix(-351.382,378.07,378.07,351.382,584.858,187.693)">
            <path d="M0.506,-0.029C0.505,-0.047 0.51,-0.064 0.522,-0.077C0.546,-0.102 0.585,-0.104 0.61,-0.081C0.612,-0.079 0.625,-0.068 0.633,-0.043C0.641,-0.02 0.646,0.02 0.624,0.079C0.624,0.079 0.624,0.079 0.623,0.08C0.623,0.08 0.623,0.08 0.623,0.08C0.566,0.106 0.525,0.105 0.502,0.098C0.476,0.092 0.464,0.079 0.463,0.078C0.438,0.055 0.436,0.015 0.46,-0.01C0.472,-0.023 0.488,-0.03 0.506,-0.029ZM0.509,-0.023C0.492,-0.025 0.476,-0.018 0.464,-0.006C0.443,0.017 0.444,0.053 0.467,0.074C0.467,0.074 0.467,0.074 0.467,0.074C0.467,0.074 0.479,0.087 0.503,0.093C0.526,0.099 0.565,0.1 0.619,0.076C0.64,0.019 0.635,-0.019 0.628,-0.041C0.62,-0.065 0.607,-0.076 0.607,-0.076C0.606,-0.076 0.606,-0.076 0.606,-0.076C0.584,-0.097 0.548,-0.096 0.527,-0.073C0.515,-0.061 0.51,-0.044 0.512,-0.027C0.512,-0.026 0.512,-0.025 0.512,-0.024C0.511,-0.024 0.51,-0.023 0.509,-0.023Z" style="fill:rgb(255,0,22);fill-rule:nonzero;"/>
        </g>
        <g transform="matrix(-351.381,378.069,378.069,351.381,592.708,194.99)">
            <path d="M0.507,-0.018L0.55,0.006L0.544,-0.014C0.543,-0.015 0.544,-0.016 0.545,-0.017C0.546,-0.018 0.547,-0.018 0.548,-0.017L0.603,0.016L0.552,-0.061C0.551,-0.062 0.551,-0.063 0.552,-0.064C0.553,-0.065 0.554,-0.066 0.555,-0.065L0.606,-0.044L0.654,-0.096C0.655,-0.097 0.657,-0.097 0.658,-0.096C0.659,-0.095 0.659,-0.093 0.658,-0.092L0.608,-0.039C0.608,-0.038 0.606,-0.038 0.605,-0.038L0.562,-0.056L0.615,0.024C0.616,0.025 0.616,0.027 0.615,0.028L0.615,0.028C0.614,0.029 0.612,0.029 0.611,0.028L0.551,-0.008L0.558,0.012C0.558,0.013 0.558,0.014 0.557,0.015C0.556,0.015 0.554,0.016 0.553,0.015L0.514,-0.007L0.557,0.057C0.558,0.058 0.558,0.059 0.557,0.06C0.556,0.061 0.555,0.062 0.554,0.061L0.513,0.046L0.467,0.096C0.465,0.097 0.464,0.097 0.462,0.096C0.461,0.095 0.461,0.093 0.462,0.092L0.51,0.041C0.511,0.04 0.512,0.04 0.513,0.04L0.547,0.053L0.503,-0.014C0.502,-0.015 0.502,-0.016 0.503,-0.017C0.504,-0.018 0.506,-0.018 0.507,-0.018Z" style="fill:rgb(255,102,117);fill-rule:nonzero;"/>
        </g>
    </g>
</svg>
