<?xml version="1.0" encoding="UTF-8" standalone="no"?>
<!DOCTYPE svg PUBLIC "-//W3C//DTD SVG 1.1//EN" "http://www.w3.org/Graphics/SVG/1.1/DTD/svg11.dtd">
<svg width="100%" height="100%" viewBox="0 0 50 50" version="1.1" xmlns="http://www.w3.org/2000/svg" xmlns:xlink="http://www.w3.org/1999/xlink" xml:space="preserve" xmlns:serif="http://www.serif.com/" style="fill-rule:evenodd;clip-rule:evenodd;stroke-linejoin:round;stroke-miterlimit:2;">
    <g>
        <g transform="matrix(0.91734,0.398106,-0.398106,0.91734,11.8911,-7.47194)">
            <ellipse cx="23.643" cy="27.279" rx="18.63" ry="19.605" style="fill:rgb(161,255,202);"/>
        </g>
        <g>
            <g transform="matrix(-0.22222,0.0902103,0.0902103,0.22222,4.02855,28.6957)">
                <path d="M-181.813,35.5L-79.962,35.5L-6.93,-35.494L-108.783,-35.496L-181.813,35.5Z" style="fill:rgb(74,241,147);fill-rule:nonzero;stroke:rgb(0,184,80);stroke-width:4.17px;"/>
            </g>
            <g transform="matrix(0.239832,0,0,0.239832,25.0002,34.4155)">
                <path d="M0,-14.768L-62.923,-40.298L-62.923,-0.449C-62.923,3.811 -34.775,25.53 0,25.53C34.773,25.53 62.919,3.814 62.919,-0.449L62.919,-40.298L0,-14.768Z" style="fill:rgb(74,241,147);fill-rule:nonzero;stroke:rgb(0,184,80);stroke-width:4.17px;"/>
            </g>
            <g transform="matrix(0.239832,0,0,0.239832,44.4079,22.8065)">
                <path d="M0,44.204C3.405,44.204 6.168,41.315 6.168,37.749C6.168,34.949 4.454,32.588 2.075,31.693L2.075,0L-1.699,1.517L-1.699,31.568C-4.272,32.343 -6.17,34.801 -6.17,37.749C-6.167,41.315 -3.407,44.204 0,44.204" style="fill:rgb(74,241,147);fill-rule:nonzero;"/>
            </g>
            <g transform="matrix(0.239832,0,0,0.239832,45.8872,44.9636)">
                <path d="M0,-48.182C-6.168,-42.785 -12.338,-48.375 -12.338,-48.375C-12.338,-48.375 -14.65,-39.509 -15.036,-33.532C-15.421,-27.557 -12.53,-21.97 -13.301,-16.957C-14.07,-11.946 -13.301,-5.972 -12.338,-2.888C-11.374,0.193 -9.445,-1.345 -9.445,-1.345C-9.445,-1.345 -10.603,-2.501 -10.603,-3.659C-10.603,-4.814 -8.097,-4.621 -8.097,-4.621L-8.097,-1.345C-8.097,-1.345 -6.554,-1.345 -6.168,-2.521C-5.783,-3.691 -3.47,-3.659 -3.47,-3.659L-2.506,-7.32C-2.506,-7.32 -2.121,-5.78 -2.121,-4.043C-2.121,-2.307 -0.386,-1.73 0.96,-4.043C5.59,-23.706 1.54,-42.593 0,-48.182" style="fill:rgb(74,241,147);fill-rule:nonzero;"/>
            </g>
        </g>
    </g>
</svg>
